<svg height="512" viewBox="0 0 512 512" width="512" xmlns="http://www.w3.org/2000/svg"><g isolation="isolate"><g id="Layer_1" data-name="Layer 1"><ellipse cx="261.16" cy="477.86" opacity=".1" rx="124.7" ry="28.14"/><ellipse cx="227.66" cy="419.16" fill="#3c4a60" rx="13.06" ry="34.45" transform="matrix(.094 -.996 .996 .094 -211.14 606.19)"/><ellipse cx="293.11" cy="419.16" fill="#445370" rx="34.45" ry="13.06" transform="matrix(.996 -.094 .094 .996 -38.3 29.57)"/><path d="m232.88 449.48-.16-.33a.65.65 0 0 1 .16.33z" fill="#d8c3bc"/><path d="m223.26 474.72c-15.06 1.12-49.52 5-55.27 0-4.78-4.16 1.89-12.72 22.66-17.15a118.35 118.35 0 0 1 14.3-2.1c23.35-2.12 27.39-4.52 27.88-5.66a36.34 36.34 0 0 0 3.32 10v.14c.85 6.59-.98 13.88-12.89 14.77z" fill="#cec2be"/><path d="m289.43 450.13.17-.32a.59.59 0 0 0 -.17.32z" fill="#d8c3bc"/><path d="m299.05 475.37c15.07 1.12 49.52 5 55.27 0 4.79-4.15-1.89-12.72-22.66-17.15a122.6 122.6 0 0 0 -14.29-2.1c-23.37-2.12-27.37-4.51-27.88-5.66a36.57 36.57 0 0 1 -3.33 10 .77.77 0 0 0 0 .15c-.86 6.58.98 13.87 12.89 14.76z" fill="#cec2be"/><path d="m232.72 449.15c0 .22.07.44.11.66a36.34 36.34 0 0 0 3.32 10l.08.14-44.54-.75c-.34-.56-.68-1.11-1-1.65-26.69-45.67 20.31-57.41 20.31-57.41l38.4 16.72c-16.59 9.84-18.17 23.14-16.68 32.29z" fill="#3c4a60"/><path d="m311.55 400.14s48.11 12 19.32 59.08l-44.59.75s14.89-26.44-13.13-43.11z" fill="#445370"/><path d="m225 460.1c6 5.26 16.94 5.78 16.94 5.78a19.85 19.85 0 0 1 -6-6.4l-12-.88a2.47 2.47 0 0 0 -2.16-1c.29-.19.6-.38.95-.57h-22.08a14.83 14.83 0 0 0 1.92 2.2l-11.92-1.64a9.92 9.92 0 0 1 -8.19-1.14s4.21 10.76 20.78 3.41a24.52 24.52 0 0 0 16.89 6s-2.34-3.14-.46-6.19c0 0 4.89 3.48 3.58 7.58 0 0 3.37-3 2-6.68.01.02-.08-.18-.25-.47z" fill="#3c4a60"/><path d="m297.5 460.1c-5.95 5.26-16.94 5.78-16.94 5.78a19.85 19.85 0 0 0 6-6.4l12-.88a2.47 2.47 0 0 1 2.16-1c-.29-.19-.6-.38-.95-.57h22.11a14.83 14.83 0 0 1 -1.92 2.2l11.92-1.64a9.92 9.92 0 0 0 8.19-1.14s-4.21 10.76-20.78 3.41c-2.93 2.62-6 6-14.51 6a13.21 13.21 0 0 0 -1.92-6.11s-4.89 3.48-3.58 7.58c0 0-3.37-3-2-6.68-.03-.06.06-.26.22-.55z" fill="#445370"/><path d="m396.74 398.43c-14.7 10.74-22.24-6.42-31.17-13.3-.1-.08-.56-1.33-.63-1.44-5.25-9.13-12.08-26.67-1-34.42 82.54-57.72 39.44-83.27-38.72-114 5.14-17.76 7.8-36.49 12.88-54.19 137.76 48.11 190.77 120.84 58.64 217.35z" fill="#445370"/><path d="m388.85 220.71c-21.67-13.43-35.66-10.36-56.82-20.48.63 1.11.58.14.61 0 1.34-4.85 3.52-12.77 4.63-16.66.77-2.73.32-1.19.62-2.25s0-.05.12-.32c138.64 48.1 189.3 119.78 59.53 217.81-10.4 7.85-14.6-1.73-23.66-4 78.12-60.1 129.63-103.03 14.97-174.1z" fill="#4f627f"/><path d="m82.69 385c4.36 13 22.37 12 33.75 9.23.13 0 1.2-.54 1.32-.57 9.93-2.14 26.33-15.71 23-26.27-25-78.7-2.72-106.06 76.83-127.72-4.15-17.92-5-36.54-8.76-54.68-119.65 24.64-165.32 83.19-126.14 200.01z" fill="#3c4a60"/><path d="m162.75 216.47c17-7.59 32.78-6.89 50.14-11.93-.56.64-.43-.13-.46-.25-1-5.21-2.28-12.69-3.12-17.18a11.17 11.17 0 0 1 -.32-1.81c-.19-1 .06.06-.11-.35-120.14 24.26-164.19 83.34-126.88 199.67 3 9.33 13.53 10 21.8 11.64-25.18-82.33-30.96-139.67 58.95-179.79z" fill="#445370"/><rect fill="#e5d8d3" height="40.42" rx="9.17" transform="matrix(-.96 .28 -.28 -.96 321.55 711.16)" width="70.06" x="75.41" y="358.13"/><path d="m392.09 293.86c0 61.09-75.56 129.76-129.71 129.73-63.72 0-128.75-68.64-128.75-129.73s85-91.5 128.75-91.5 129.71 30.41 129.71 91.5z" fill="#3c4a60"/><path d="m391.51 300.05c-3.93 60.95-81.2 126.38-129.31 122.95-50.29-3.61-78.72-75.15-74.78-136.11s73-87 107.56-84.74 100.47 36.94 96.53 97.9z" fill="#445370"/><path d="m366.11 319.05c0 48.95-60.53 103.95-103.91 103.95-51 0-103.14-55-103.14-103.93s68.06-73.3 103.14-73.3 103.91 24.34 103.91 73.28z" fill="#f2e6e2"/><path d="m344.76 318.1c0 48.94-53.41 106.2-91.56 103.93-44.79-2.67-94.14-54-94.14-103s63.23-74.25 94.14-74.25 91.56 24.38 91.56 73.32z" fill="#e5d8d3"/><ellipse cx="259.84" cy="382.28" fill="#7f3c1b" opacity=".29" rx="3.09" ry="3.94"/><g opacity=".29"><path d="m288.17 334.6a18.82 18.82 0 0 0 21.34.64c3.47-2.24.24-7.81-3.25-5.56a12.59 12.59 0 0 1 -14.84-.64c-3.32-2.48-6.53 3.1-3.25 5.56z" fill="#7f3c1b"/></g><g opacity=".29"><path d="m205.42 334.6a18.82 18.82 0 0 0 21.34.64c3.47-2.24.25-7.81-3.25-5.56a12.59 12.59 0 0 1 -14.84-.64c-3.32-2.48-6.53 3.1-3.25 5.56z" fill="#7f3c1b"/></g><path d="m355.48 236.08c0 43.78-50.55 66.71-96.61 66.32-44.82-.4-91.87-25.91-91.87-69.69s47.07-88.87 91.89-88.87 96.59 48.46 96.59 92.24z" fill="#160904" opacity=".39"/><path d="m376.57 209.09c0 51.87-60.64 79-115.9 78.57-53.76-.45-110.23-30.69-110.23-82.57s56.46-105.28 110.23-105.28 115.9 57.41 115.9 109.28z" fill="#445370"/><path d="m301.87 43.07c-3.62-5.83-6.88-16.58-4.42-23.27l.16-.42c-12.61 3.26-12.22 15.92-12.22 15.92-8.52-10.13 0-29.3 0-29.3-36 4.42-97.14 50.2-106.06 98.51v10a56.56 56.56 0 0 0 56.56 56.56h49.57a56.55 56.55 0 0 0 56.54-56.56v-10c0-21.3-37.75-57.6-40.13-61.44z" fill="#445370"/><path d="m184.43 115c2.96-16 13.67-41 30.51-59.63 26.95-29.76 70.45-49.37 70.45-49.37-36 4.42-97.14 50.2-106.06 98.51v10a56.48 56.48 0 0 0 23 45.54 56.29 56.29 0 0 1 -11-33.53z" fill="#333e51"/><path d="m297.61 19.38s-19.68 19.9 1 45.21a30.34 30.34 0 0 1 -13.5-26.85c0-.68.29-2.8.33-3.48.15-3.1 1.56-12.19 12.17-14.88z" fill="#333e51"/><path d="m355.48 224c0 42-49.33 64-94.28 63.66-43.74-.36-89.67-24.87-89.67-66.89s45.93-85.3 89.67-85.3 94.28 46.53 94.28 88.53z" fill="#f2e6e2"/><rect fill="#f2e6e2" height="126.06" rx="25.01" width="132.34" x="194.5" y="80.72"/><path d="m333.45 224c0 42-44.07 64-84.23 63.66-39.07-.36-80.1-24.87-80.1-66.89s41-85.3 80.1-85.3 84.23 46.53 84.23 88.53z" fill="#e5d8d3"/><rect fill="#e5d8d3" height="126.06" rx="23.46" width="118.23" x="192.05" y="80.72"/><g opacity=".15" mix-blend-mode="multiply"><path d="m259 136.05a40.1 40.1 0 1 0 -40.1 40.1 40.1 40.1 0 0 0 40.1-40.1z" fill="#7f3c1b"/></g><path d="m247.12 153.21a36.75 36.75 0 1 0 -49.92 14.44 36.75 36.75 0 0 0 49.92-14.44z" fill="#fff"/><path d="m202.91 157.28a36.72 36.72 0 0 1 -16.84-44.48 36 36 0 0 0 -3.31 4.93 36.75 36.75 0 1 0 64.36 35.48 37.73 37.73 0 0 0 2.4-5.43 36.73 36.73 0 0 1 -46.61 9.5z" fill="#f2f2f2"/><path d="m195 116.17a4 4 0 1 1 1.55 5.39 4 4 0 0 1 -1.55-5.39z" fill="#1e242d"/><g opacity=".15" mix-blend-mode="multiply"><path d="m266.51 136.05a40.1 40.1 0 1 1 40.1 40.1 40.1 40.1 0 0 1 -40.1-40.1z" fill="#7f3c1b"/></g><path d="m278.34 153.21a36.75 36.75 0 1 1 49.92 14.44 36.75 36.75 0 0 1 -49.92-14.44z" fill="#fff"/><path d="m322.55 157.28a36.74 36.74 0 0 0 16.84-44.48 37.87 37.87 0 0 1 3.31 4.93 36.75 36.75 0 0 1 -64.36 35.48 35.65 35.65 0 0 1 -2.4-5.43 36.73 36.73 0 0 0 46.61 9.5z" fill="#f2f2f2"/><path d="m268.34 122.73c2.94 2.76 8.15 3.32 13.8 2.84 15.11-1.3 31.51-9.78 42.32-21.21 5-5.32 9-11.16 8.19-15.88-1.88-11.48-25.33.42-34.65 5.64-1.86 1-3.71 2-5.6 3-9.57 4.82-32.51 17.65-24.06 25.61z" fill="#333e51"/><path d="m272.47 161.82a14.31 14.31 0 0 0 -9.87 3.69 14.31 14.31 0 0 0 -9.87-3.69c-7.13 0-12.92 4.65-12.92 10.4s5.79 10.4 12.92 10.4a14.31 14.31 0 0 0 9.87-3.69 14.31 14.31 0 0 0 9.87 3.69c7.14 0 12.92-4.65 12.92-10.4s-5.78-10.4-12.92-10.4z" fill="#f2e6e2"/><path d="m278 179.53a10.57 10.57 0 0 1 -2.77 1.13c-3.52.9-7-.17-8.61-2.9-2-3.46-.14-8.27 4.15-10.75l.42-.23c4.2-2.19 9-1.34 11 2s.14 8.27-4.19 10.75z" fill="#13171c"/><path d="m275.68 180.43a4.23 4.23 0 0 1 -.41.23c-3.52.9-7-.17-8.61-2.9-2-3.46-.14-8.27 4.15-10.75l.42-.23c3.52-.89 7 .18 8.61 2.91 1.99 3.46.16 8.31-4.16 10.74z" fill="#1e242d"/><path d="m247.26 179.53a10.77 10.77 0 0 0 2.78 1.13c3.52.9 7-.17 8.61-2.9 2-3.46.13-8.27-4.16-10.75l-.41-.23c-4.21-2.19-9-1.34-11 2s-.08 8.27 4.18 10.75z" fill="#13171c"/><path d="m249.63 180.43a3.3 3.3 0 0 0 .41.23c3.52.9 7-.17 8.61-2.9 2-3.46.13-8.27-4.16-10.75l-.41-.23c-3.52-.89-7 .18-8.61 2.91-2 3.46-.14 8.31 4.16 10.74z" fill="#1e242d"/><path d="m279.52 129.58a4 4 0 1 1 1.56 5.4 4 4 0 0 1 -1.56-5.4z" fill="#1e242d"/><path d="m143 86.41a10.61 10.61 0 0 1 -7.22 10.48l-22.55 7.11-1-3.12a40.15 40.15 0 0 1 -2.23-13.45 30 30 0 0 1 2.5-10.76q2.27-5.22 11.45-19.49 4.92-7.5 3.5-12a9.59 9.59 0 0 0 -4.91-6.18q-3.45-1.65-8.86.05a13.63 13.63 0 0 0 -8.41 6.9 15.25 15.25 0 0 0 -1.46 6.5 10.85 10.85 0 0 1 -8.9 10.29l-11.68 2.17a10.91 10.91 0 0 1 -12.91-11 42.1 42.1 0 0 1 5.1-19.08q7.71-14.21 30.66-21.46 17.85-5.65 31.19-1.68 18.1 5.35 23.42 22.15a27.22 27.22 0 0 1 .41 14.66q-1.8 7.7-10.73 20.79-6.19 9.18-7.11 13.84a15.86 15.86 0 0 0 -.26 3.28zm-17.79 22.92 12.55-4a10.92 10.92 0 0 1 13.69 7.11l2.73 8.62a10.92 10.92 0 0 1 -7.11 13.69l-12.55 4a10.91 10.91 0 0 1 -13.69-7.11l-2.75-8.64a10.92 10.92 0 0 1 7.11-13.67z" fill="#fab131"/><path d="m97.26 122.94a9.43 9.43 0 0 1 -.83 10.67l-9.7 11.39-1.73-1.48a27.9 27.9 0 0 1 -6.27-7.08 20.78 20.78 0 0 1 -2.48-7.22c-.38-2.6-.53-7.81-.41-15.64q.14-6.21-2.35-8.33a6.6 6.6 0 0 0 -5.12-1.83c-1.76.19-3.49 1.29-5.18 3.28a9.4 9.4 0 0 0 -2.41 7.13 9.72 9.72 0 0 0 1.1 3.57 9.61 9.61 0 0 1 -2.36 11.29l-2.86 2.62a9.5 9.5 0 0 1 -15.12-3.31 28.72 28.72 0 0 1 -2.36-9.82q-.68-11.18 10.13-23.8 8.42-9.85 17.69-12.38 12.6-3.51 21.87 4.4a18.69 18.69 0 0 1 5.61 8.45q1.76 5.15 1.32 16.15c-.18 5.11.11 8.68.9 10.73a9.57 9.57 0 0 0 .56 1.21zm-.26 19.32 3.4-4a9.48 9.48 0 0 1 13.36-1.06l1.82 1.56a9.48 9.48 0 0 1 1.06 13.36l-3.4 4a9.48 9.48 0 0 1 -13.36 1.06l-1.88-1.56a9.47 9.47 0 0 1 -1-13.36z" fill="#fab131"/><path d="m369.81 397.2c-5.07-8.43-11.94-21-16.36-29.82-5.13-10.2-1.79-18.05 6.37-24.34a18.42 18.42 0 0 1 3.8-2.07c9.55-3.57 18.76-1.85 24.67 7.5 5.1 8.06 10 19.34 14.3 27.94 5 10 2.51 18.71-5.62 25.5a18.54 18.54 0 0 1 -3.62 2.32c-9.49 4.12-17.66 2.77-23.54-7.03z" fill="#e5d8d3"/><path d="m238.51 238.21s49.62-38.62 74.85-19c0 0-21.65-35.03-74.85 19z" fill="#e0452e"/><path d="m193.66 100.72c-2.89-4-1.39-10.51.64-17.29 5.42-18.14 21.89-29.27 39.89-25.43 8.39 1.79 15.2 5.22 16.89 10.62 4.12 13.09-8.86 5.78-24.05 10.9a66.81 66.81 0 0 0 -7.93 3.58c-14.4 9.18-17.1 29.1-25.44 17.62z" fill="#333e51"/></g></g></svg>