<svg height="512" viewBox="0 0 512 512" width="512" xmlns="http://www.w3.org/2000/svg"><g isolation="isolate"><g id="Layer_1" data-name="Layer 1"><path d="m423.32 337.63h15.39v71.4h-15.39z" fill="#143441" transform="matrix(.27 -.96 .96 .27 -43.19 690)"/><rect fill="#57636f" height="32.15" rx="3.18" transform="matrix(-.964 -.265 .265 -.964 847.28 890.36)" width="18.94" x="474.23" y="371.95"/><rect fill="#364d5c" height="51.72" rx="3.18" transform="matrix(-.964 -.265 .265 -.964 830.08 882.54)" width="18.94" x="465.1" y="359.42"/><rect fill="#57636f" height="32.15" rx="3.18" transform="matrix(-.964 -.265 .265 -.964 648.9 806.45)" width="18.94" x="369.38" y="343.38"/><rect fill="#364d5c" height="51.72" rx="3.18" transform="matrix(-.964 -.265 .265 -.964 665.58 813.04)" width="18.94" x="378.16" y="335.76"/><path d="m44.84 357.23h71.4v15.39h-71.4z" fill="#143441" transform="matrix(.981 -.196 .196 .981 -69.82 22.8)"/><rect fill="#57636f" height="32.15" rx="3.18" transform="matrix(-.981 .196 -.196 -.981 335.18 675.75)" width="18.94" x="124.76" y="338.35"/><rect fill="#364d5c" height="51.72" rx="3.18" transform="matrix(-.981 .196 -.196 -.981 316.9 680.83)" width="18.94" x="115.36" y="330.2"/><rect fill="#57636f" height="32.15" rx="3.18" transform="matrix(-.981 .196 -.196 -.981 128.38 739.14)" width="18.94" x="18.22" y="359.84"/><rect fill="#364d5c" height="51.72" rx="3.18" transform="matrix(-.981 .196 -.196 -.981 145.47 733.46)" width="18.94" x="27.05" y="348.05"/><ellipse cx="257.15" cy="477.86" opacity=".1" rx="124.7" ry="28.14"/><ellipse cx="223.65" cy="419.16" fill="#3c4a60" rx="13.06" ry="34.45" transform="matrix(.094 -.996 .996 .094 -214.77 602.2)"/><ellipse cx="289.11" cy="419.16" fill="#445370" rx="34.45" ry="13.06" transform="matrix(.996 -.094 .094 .996 -38.32 29.2)"/><path d="m228.87 449.48-.16-.33a.58.58 0 0 1 .16.33z" fill="#d8c3bc"/><path d="m219.26 474.72c-15.07 1.12-49.52 5-55.28 0-4.78-4.16 1.9-12.72 22.66-17.15a119 119 0 0 1 14.3-2.1c23.35-2.12 27.4-4.52 27.88-5.66a36.57 36.57 0 0 0 3.33 10 .59.59 0 0 1 0 .14c.85 6.59-.98 13.88-12.89 14.77z" fill="#cec2be"/><path d="m285.43 450.13.16-.32a.54.54 0 0 0 -.16.32z" fill="#d8c3bc"/><path d="m295 475.37c15.07 1.12 49.53 5 55.28 0 4.78-4.15-1.89-12.72-22.66-17.15a122.79 122.79 0 0 0 -14.3-2.1c-23.32-2.12-27.32-4.51-27.84-5.66a36.34 36.34 0 0 1 -3.32 10 .8.8 0 0 0 0 .15c-.87 6.58.98 13.87 12.84 14.76z" fill="#cec2be"/><path d="m228.71 449.15c0 .22.07.44.11.66a36.57 36.57 0 0 0 3.33 10l.08.14h-.06l-44.54-.75-1-1.65c-26.63-45.67 20.37-57.41 20.37-57.41l38.4 16.72c-16.59 9.84-18.17 23.14-16.69 32.29z" fill="#3c4a60"/><path d="m307.55 400.14s48.11 12 19.32 59.08l-44.6.75s14.9-26.44-13.12-43.11z" fill="#445370"/><path d="m221 460.1c5.94 5.26 16.94 5.78 16.94 5.78a19.85 19.85 0 0 1 -6-6.4l-12-.88a2.46 2.46 0 0 0 -2.15-1c.29-.19.6-.38.94-.57h-22.09a15.63 15.63 0 0 0 1.92 2.2l-11.92-1.64a9.92 9.92 0 0 1 -8.19-1.14s4.22 10.76 20.78 3.41a24.56 24.56 0 0 0 16.89 6s-2.33-3.14-.46-6.19c0 0 4.9 3.48 3.58 7.58 0 0 3.37-3 2-6.68.02.02-.07-.18-.24-.47z" fill="#3c4a60"/><path d="m293.49 460.1c-5.94 5.26-16.93 5.78-16.93 5.78a19.85 19.85 0 0 0 6-6.4l12-.88a2.46 2.46 0 0 1 2.15-1c-.29-.19-.6-.38-.94-.57h22.11a14.83 14.83 0 0 1 -1.92 2.2l11.92-1.64a9.92 9.92 0 0 0 8.19-1.14s-4.21 10.76-20.78 3.41c-2.93 2.62-6 6-14.51 6a13.35 13.35 0 0 0 -1.92-6.11s-4.9 3.48-3.58 7.58c0 0-3.37-3-2-6.68-.04-.06.05-.26.21-.55z" fill="#445370"/><path d="m463.7 373.75c-1.71 13.59-19.56 16.19-31.26 15.69-.14 0-1.29-.29-1.41-.3-10.16-.15-28.9-10.22-27.7-21.24 9-82.07-18.19-104.52-100.45-110.1.54-18.39-2.28-36.82-2.17-55.34 122.14.67 178.44 49.09 162.99 171.29z" fill="#445370"/><path d="m352.06 224.31c-18.15-4.09-33.49-.3-51.5-1.83.67.52.4-.21.4-.34 0-5.29-.26-12.88-.32-17.45a13.08 13.08 0 0 0 0-1.84c0-1-.05.07 0-.36 122.56.15 177.38 49.4 163.72 170.8-1.1 9.73-11.29 12.49-19.08 15.7 8.45-85.67 2.83-142.99-93.22-164.68z" fill="#4f627f"/><rect fill="#e5d8d3" height="40.42" rx="9.17" transform="matrix(.983 .181 -.181 .983 74.45 -72.11)" width="67.91" x="397.51" y="350.73"/><path d="m52.49 366.7c2 13.55 19.95 15.71 31.64 14.92.13 0 1.28-.32 1.39-.33 10.16-.39 28.65-10.92 27.18-21.9-11-81.84 15.64-104.94 97.75-112.52-1-18.37 1.38-36.86.82-55.37-122.09 3.64-177.19 53.41-158.78 175.2z" fill="#3c4a60"/><path d="m160.46 214.59c18-4.53 33.48-1.11 51.44-3.08-.65.53-.4-.2-.4-.33-.09-5.3-.05-12.89-.11-17.46a12.31 12.31 0 0 1 0-1.84c0-1 .05.07 0-.36-122.57 3.14-176.17 53.7-159.56 174.73 1.33 9.71 11.59 12.22 19.45 15.24-10.53-85.44-6.28-142.92 89.18-166.9z" fill="#445370"/><rect fill="#e5d8d3" height="40.42" rx="9.17" transform="matrix(-.994 .107 -.107 -.994 200.63 719.18)" width="70.06" x="45.93" y="344.78"/><path d="m388.08 293.86c0 61.09-75.56 129.76-129.7 129.73-63.72 0-128.75-68.64-128.75-129.73s85-91.5 128.75-91.5 129.7 30.41 129.7 91.5z" fill="#3c4a60"/><path d="m387.51 300.05c-3.94 60.95-81.21 126.38-129.31 122.95-50.3-3.61-78.72-75.15-74.79-136.11s73-87 107.57-84.74 100.46 36.94 96.53 97.9z" fill="#445370"/><path d="m362.11 319.05c0 48.95-60.53 103.95-103.91 103.95-51 0-103.15-55-103.15-103.93s68.07-73.3 103.15-73.3 103.91 24.34 103.91 73.28z" fill="#f2e6e2"/><path d="m340.75 318.1c0 48.94-53.4 106.2-91.56 103.93-44.78-2.67-94.14-54-94.14-103s63.23-74.25 94.14-74.25 91.56 24.38 91.56 73.32z" fill="#e5d8d3"/><ellipse cx="255.83" cy="382.28" fill="#7f3c1b" opacity=".29" rx="3.09" ry="3.94"/><g opacity=".29"><path d="m284.16 334.6a18.82 18.82 0 0 0 21.34.64c3.47-2.24.25-7.81-3.25-5.56a12.59 12.59 0 0 1 -14.84-.64c-3.31-2.48-6.53 3.1-3.25 5.56z" fill="#7f3c1b"/></g><g opacity=".29"><path d="m201.42 334.6a18.82 18.82 0 0 0 21.34.64c3.47-2.24.24-7.81-3.25-5.56a12.59 12.59 0 0 1 -14.84-.64c-3.32-2.48-6.53 3.1-3.25 5.56z" fill="#7f3c1b"/></g><path d="m351.48 236.08c0 43.78-50.55 66.71-96.62 66.32-44.86-.4-91.86-25.91-91.86-69.69s47.06-88.87 91.88-88.87 96.6 48.46 96.6 92.24z" fill="#160904" opacity=".39"/><path d="m372.56 209.09c0 51.87-60.63 79-115.89 78.57-53.77-.45-110.23-30.69-110.23-82.57s56.46-105.28 110.23-105.28 115.89 57.41 115.89 109.28z" fill="#445370"/><path d="m297.86 43.07c-3.62-5.83-6.87-16.58-4.41-23.27l.16-.42c-12.61 3.26-12.22 15.92-12.22 15.92-8.52-10.13 0-29.3 0-29.3-36.06 4.42-97.14 50.2-106.06 98.51v10a56.55 56.55 0 0 0 56.55 56.56h49.57a56.56 56.56 0 0 0 56.55-56.56v-10c0-21.3-37.76-57.6-40.14-61.44z" fill="#445370"/><path d="m180.42 115c3-16.08 13.67-41.08 30.51-59.67 26.95-29.72 70.46-49.33 70.46-49.33-36.06 4.42-97.14 50.2-106.06 98.51v10a56.48 56.48 0 0 0 23 45.54 56.3 56.3 0 0 1 -11-33.53z" fill="#333e51"/><path d="m293.61 19.38s-19.68 19.9 1 45.21a30.37 30.37 0 0 1 -13.5-26.85c0-.68.3-2.8.33-3.48.14-3.1 1.56-12.19 12.17-14.88z" fill="#333e51"/><path d="m351.48 224c0 42-49.33 64-94.28 63.66-43.74-.36-89.67-24.87-89.67-66.89s45.93-85.3 89.67-85.3 94.28 46.53 94.28 88.53z" fill="#f2e6e2"/><rect fill="#f2e6e2" height="126.06" rx="25.01" width="132.34" x="190.5" y="80.72"/><path d="m329.45 224c0 42-44.07 64-84.23 63.66-39.07-.36-80.11-24.87-80.11-66.89s41-85.3 80.11-85.3 84.23 46.53 84.23 88.53z" fill="#e5d8d3"/><rect fill="#e5d8d3" height="126.06" rx="23.46" width="118.23" x="188.05" y="80.72"/><g opacity=".15" mix-blend-mode="multiply"><path d="m255 136.05a40.11 40.11 0 1 0 -40.11 40.1 40.11 40.11 0 0 0 40.11-40.1z" fill="#7f3c1b"/></g><path d="m243.12 153.21a36.75 36.75 0 1 0 -49.93 14.44 36.76 36.76 0 0 0 49.93-14.44z" fill="#fff"/><path d="m198.91 157.28a36.72 36.72 0 0 1 -16.84-44.48 36.73 36.73 0 1 0 61.05 40.41 37.73 37.73 0 0 0 2.4-5.43 36.73 36.73 0 0 1 -46.61 9.5z" fill="#f2f2f2"/><path d="m227.56 127.28a4 4 0 1 1 1.56 5.4 4 4 0 0 1 -1.56-5.4z" fill="#1e242d"/><g opacity=".15" mix-blend-mode="multiply"><path d="m262.5 136.05a40.1 40.1 0 1 1 40.11 40.1 40.11 40.11 0 0 1 -40.11-40.1z" fill="#7f3c1b"/></g><path d="m274.33 153.21a36.75 36.75 0 1 1 49.93 14.44 36.76 36.76 0 0 1 -49.93-14.44z" fill="#fff"/><path d="m318.54 157.28a36.72 36.72 0 0 0 16.84-44.48 36 36 0 0 1 3.31 4.93 36.75 36.75 0 1 1 -64.36 35.48 37.73 37.73 0 0 1 -2.4-5.43 36.73 36.73 0 0 0 46.61 9.5z" fill="#f2f2f2"/><path d="m268.47 161.82a14.31 14.31 0 0 0 -9.87 3.69 14.31 14.31 0 0 0 -9.87-3.69c-7.13 0-12.92 4.65-12.92 10.4s5.79 10.4 12.92 10.4a14.31 14.31 0 0 0 9.87-3.69 14.31 14.31 0 0 0 9.87 3.69c7.13 0 12.92-4.65 12.92-10.4s-5.79-10.4-12.92-10.4z" fill="#f2e6e2"/><path d="m274 179.53a10.63 10.63 0 0 1 -2.78 1.13c-3.52.9-7-.17-8.61-2.9-2-3.46-.13-8.27 4.16-10.75l.41-.23c4.21-2.19 9-1.34 11 2s.15 8.27-4.18 10.75z" fill="#13171c"/><path d="m271.68 180.43a4.36 4.36 0 0 1 -.42.23c-3.52.9-7-.17-8.61-2.9-2-3.46-.13-8.27 4.16-10.75l.41-.23c3.53-.89 7 .18 8.62 2.91 1.99 3.46.16 8.31-4.16 10.74z" fill="#1e242d"/><path d="m243.26 179.53a10.63 10.63 0 0 0 2.78 1.13c3.52.9 7-.17 8.61-2.9 2-3.46.13-8.27-4.16-10.75l-.42-.23c-4.2-2.19-9-1.34-11 2s-.07 8.27 4.19 10.75z" fill="#13171c"/><path d="m245.62 180.43a4.36 4.36 0 0 0 .42.23c3.52.9 7-.17 8.61-2.9 2-3.46.13-8.27-4.16-10.75l-.42-.23c-3.52-.89-7 .18-8.61 2.91-1.99 3.46-.13 8.31 4.16 10.74z" fill="#1e242d"/><path d="m292.71 230.15a22.85 22.85 0 0 1 -1.94 7 5.34 5.34 0 0 1 -2.41 2.67 2.26 2.26 0 0 1 -1.52.09l-3.69-1a88.33 88.33 0 0 0 -11-2h-.38c-.8-.09-1.63-.18-2.49-.25a101.93 101.93 0 0 0 -15-.17 109 109 0 0 0 -14.58 1.88c-2.84.55-5.77 1.23-8.78 2.07l-.93.25c-.78.22-1.56.46-2.36.7-3.48 1-4.53-4.14-1.93-9.41a87.18 87.18 0 0 1 6.82-11.53 66.86 66.86 0 0 1 7.51-9.05l.68-.67c7.24-7 16.7-12.54 28.65-12.93a27.61 27.61 0 0 1 7.92.81 18.41 18.41 0 0 1 6.28 2.93 17.84 17.84 0 0 1 4.18 4.32 24.07 24.07 0 0 1 3.47 7.77c1.37 5.12 2.14 11.71 1.5 16.52z" fill="#4f2a20"/><path d="m270 231.21a19.15 19.15 0 0 1 -.76 5.43 101.93 101.93 0 0 0 -15-.17 19.61 19.61 0 0 1 -.7-5.26c0-.74 0-1.46.11-2.16.65-6.15 4-10.84 8.11-10.84 4.29 0 7.82 5.2 8.19 11.84.05.38.05.77.05 1.16z" fill="#c33"/><path d="m271.72 230.55v6.34c-.8-.09-1.63-.18-2.49-.25a101.93 101.93 0 0 0 -15-.17 109 109 0 0 0 -14.58 1.88c-2.84.55-5.77 1.23-8.78 2.07l-.93.25c4.13-4.49 11.08-10.21 20.47-11.58l1.51 5.26 1.6-5.26h.12c.88-.24 6.55-1.57 16.3 1 .59.11 1.18.28 1.78.46z" fill="#fff"/><path d="m288.7 238.7c-.11.39-.22.77-.34 1.13a2.26 2.26 0 0 1 -1.52.09l-3.69-1a88.33 88.33 0 0 0 -11-2l4.46-5.8a38.46 38.46 0 0 1 12.09 7.58z" fill="#fff"/><path d="m283.15 128a4 4 0 1 1 1.56 5.39 4 4 0 0 1 -1.56-5.39z" fill="#1e242d"/><path d="m341.58 146.19c6.68-28.17-8.44-38.47-24.14-46.76-14.55-7.67-31.62-2.33-41.1 13.12a48.36 48.36 0 0 0 -5.92 13.57" fill="#b79c92"/><path d="m175.08 145.15c-6.68-28.17 8.44-38.47 24.14-46.76 14.55-7.68 31.62-2.33 41.1 13.11a48.32 48.32 0 0 1 5.92 13.57" fill="#b79c92"/><path d="m271.38 69.33c-1.06 3.9.91 8.76 4 13.52 8.25 12.72 23.45 23.2 38.62 27.36 7.07 1.94 14.07 2.66 17.87-.24 9.22-7-12.29-22.16-21.3-27.95-1.78-1.14-3.52-2.31-5.26-3.53-8.77-6.15-30.89-20.35-33.93-9.16z" fill="#333e51"/><path d="m251.94 65.44c.93 3.92-1.19 8.72-4.43 13.38-8.66 12.44-24.2 22.41-39.49 26.07-7.14 1.71-14.15 2.2-17.86-.83-9-7.34 13-21.74 22.2-27.22 1.83-1.09 3.6-2.2 5.38-3.37 8.95-5.86 31.53-19.33 34.2-8.03z" fill="#333e51"/><g fill="#89cdf7"><path d="m264.34 109.58c.05 2.73 1.08 4.93 2.31 4.91s2.19-2.26 2.15-5-2.39-9.3-2.39-9.3-2.11 6.65-2.07 9.39z"/><path d="m270.43 98.12c.06 3.92 1.55 7.07 3.31 7s3.14-3.23 3.07-7.15-3.42-13.33-3.42-13.33-3.03 9.56-2.96 13.48z"/></g></g></g></svg>