<?xml version="1.0" encoding="UTF-8"?>
<!-- Generator: Adobe Illustrator 25.2.1, SVG Export Plug-In . SVG Version: 6.00 Build 0)  -->
<svg xmlns="http://www.w3.org/2000/svg" xmlns:xlink="http://www.w3.org/1999/xlink" version="1.1" id="Capa_1" x="0px" y="0px" viewBox="0 0 512 512" style="enable-background:new 0 0 512 512;" xml:space="preserve" width="512" height="512">
<g>
	<g>
		<g>
			<g>
				<path style="fill:#FFD837;" d="M408.965,119.331c-1.466-0.511-2.174-0.024-3.838,0c-0.297-1.943-1.487-2.993-1.922-4.8      c5.285-2.684-2.559-10.301-5.117-10.238c-1.411,0.035-2.26,0.978-3.2,2.239c-1.192-0.941-3.212-1.054-4.48-1.92      c0-1.385,0-2.772,0-4.159c-2.594-1.986-10.249-1.567-12.797,0.32c-0.273,1.918-0.021,2.369,0,4.48      c-1.983,0.579-3.449,1.672-5.119,2.56c-2.885-6.753-10.783,1.922-10.559,5.119c0.159,2.241,2.185,2.108,3.2,4.157      c-0.574,1.451-0.733,3.32-1.28,4.801c-2.048-0.143-2.334-0.057-4.48,0c-2.081,1.687-2.456,9.215-0.319,11.198      c1.954-0.198,3.51,0.809,5.117,0c0.302,1.725,1.14,2.911,1.601,4.48c-1.194,1.401-2.622,1.391-2.878,3.2      c-0.283,1.987,3.33,7.084,6.397,7.038c2.369-0.035,2.255-2.174,4.479-2.88c1.09,1.148,3.322,1.158,4.481,2.239      c-0.741,1.661-1.439,4.731-0.322,6.399c5.201,1.68,16.207,1.184,12.16-6.399c2.197-0.36,3.669-1.448,5.438-2.239      c1.634,1.098,1.648,2.686,3.519,2.88c2.427,0.25,8.61-5.982,8.319-8.318c-0.261-2.095-2.12-1.518-3.2-3.521      c0.756-0.95,0.693-2.718,1.599-3.518c1.559-0.148,3.749,0.335,4.801-0.322C411.495,128.589,410.827,122.107,408.965,119.331z       M384.719,140.702c-8.006,0-14.499-6.49-14.499-14.499c0-8.005,6.493-14.496,14.499-14.496c8.007,0,14.498,6.491,14.498,14.496      C399.217,134.212,392.726,140.702,384.719,140.702z"/>
				<g>
					<path style="fill:#FF4E4E;" d="M455.492,90.896c-0.564-2.201-1.26-4.273-2.332-5.965c1.46-1.603,3.412-2.89,3.369-5.186       c-0.047-2.435-3.349-5.32-5.704-5.187c-2.746,0.154-3.014,2.917-5.448,3.89c-1.357-0.717-3.12-1.03-4.666-1.557       c-0.038-2.557-0.389-4.799-1.296-6.482c-1.709-1.168-5.599-1.462-7.522-0.261c-1.152,1.615-0.686,4.846-0.776,7.522       c-1.119,0.609-2.513,0.944-3.631,1.555c-1.983-1.495-2.609-4.22-5.707-3.89c-2.048,0.219-4.748,3.176-4.668,5.446       c0.096,2.666,3.156,3.254,3.892,5.446c-0.645,1.085-0.901,2.557-1.558,3.63c-2.458-0.473-6.276-0.521-7.78,0.778       c-2.099,5.627,1.276,9.618,7.263,8.817c0.38,2.213,1.752,3.432,2.593,5.186c-1.494,1.896-4.941,2.672-4.669,5.704       c0.154,1.712,3.285,4.379,5.447,4.409c2.976,0.045,3.735-2.897,5.703-4.149c1.256,1.167,3.151,1.691,4.668,2.593       c-0.27,2.076-0.557,5.051,0.261,6.742c1.512,1.349,4.529,1.058,6.741,0.52c1.411-1.355,1.623-3.911,1.555-6.743       c2.304-0.292,3.998-1.19,5.967-1.814c1.689,1.758,2.834,5.266,5.703,5.186c2.123-0.061,4.899-3.378,4.668-5.965       c-0.248-2.787-3.18-3.386-4.149-5.445c1.152-1.531,1.423-3.938,2.074-5.967c2.318,0.455,5.145,0.785,6.483-0.777       C463.439,93.733,461.173,88.972,455.492,90.896z M437.342,110.343c-8.394,0-15.198-6.805-15.198-15.199       c0-8.395,6.804-15.199,15.198-15.199c8.394,0,15.2,6.804,15.2,15.199C452.541,103.538,445.736,110.343,437.342,110.343z"/>
					<path style="fill:#FF4E4E;" d="M437.342,85.852c-5.131,0-9.289,4.16-9.289,9.292c0,5.13,4.158,9.292,9.289,9.292       s9.293-4.161,9.293-9.292C446.634,90.013,442.473,85.852,437.342,85.852z"/>
				</g>
				<g>
					<path style="fill:#568EAF;" d="M511.113,158.044c-1.73-3.552-6.236-3.314-9.599-4.16c-0.703-3.455-2.171-6.147-3.518-8.959       c1.617-2.925,5.26-4.007,5.439-7.676c0.219-4.406-6.06-10.517-11.198-9.599c-3.652,0.653-3.75,4.392-7.038,5.759       c-2.027-1.813-5.311-2.372-7.68-3.838c-0.421-3.794,0.698-7.194-1.917-9.28c-2.301-1.834-11.145-2.049-13.44,1.281       c-1.654,2.399-0.658,4.616-0.961,7.998c-2.865,1.186-5.927,2.178-8.317,3.838c-2.169-1.972-3.29-4.721-6.718-4.799       c-2.785-0.065-8.415,4.473-8.96,6.718c-1.003,4.15,2.232,6.065,4.161,9.279c-1.515,2.536-2.462,5.643-3.839,8.316       c-4.304,0.311-8.559-0.331-10.238,2.56c-1.064,1.827-1.108,7.579,0,9.919c1.459,3.09,5.652,2.834,9.276,3.2       c0.709,4.196,2.408,7.402,4.479,10.239c-1.854,2.564-4.842,3.889-4.479,7.677c0.249,2.579,4.711,6.773,7.039,7.04       c3.82,0.438,6.354-2.9,9.279-4.16c2.06,1.992,5.466,2.64,8.317,3.838c-1.84,10.17,6.049,11.831,13.758,9.279       c2.388-2.199,2.319-6.854,3.2-10.559c3.185-0.337,5.653-1.385,7.999-2.559c2.958,1.929,5.092,6.113,9.6,5.12       c1.299-0.287,3.097-2.299,4.158-3.52c4.69-5.39,0.91-9.679-2.559-13.758c1.715-1.697,1.908-4.917,3.518-6.718       c3.134,0.28,6.283,0.314,8.319-0.958C511.976,167.819,512.833,161.574,511.113,158.044z M469.618,185.62       c-13.046,0-23.623-10.575-23.623-23.622c0-13.046,10.577-23.621,23.623-23.621c13.046,0,23.621,10.575,23.621,23.621       C493.239,175.046,482.664,185.62,469.618,185.62z"/>
					<path style="fill:#568EAF;" d="M469.618,153.496c-4.696,0-8.504,3.809-8.504,8.503c0,4.695,3.808,8.503,8.504,8.503       s8.501-3.808,8.501-8.503C478.119,157.304,474.314,153.496,469.618,153.496z"/>
				</g>
			</g>
			<g>
				<path style="fill:#568EAF;" d="M101.249,91.341c-1.053-0.657-3.239-0.174-4.799-0.322c-0.905-0.8-0.843-2.569-1.601-3.517      c1.081-2.003,2.939-1.427,3.2-3.522c0.293-2.336-5.893-8.568-8.318-8.318c-1.871,0.194-1.887,1.782-3.518,2.88      c-1.771-0.792-3.242-1.878-5.441-2.239c4.05-7.584-6.958-8.08-12.156-6.399c-1.117,1.668-0.419,4.739,0.321,6.399      c-1.159,1.08-3.391,1.091-4.48,2.239c-2.224-0.706-2.111-2.844-4.48-2.88c-3.067-0.046-6.681,5.051-6.397,7.038      c0.254,1.806,1.683,1.799,2.877,3.201c-0.458,1.568-1.297,2.754-1.599,4.479c-1.609-0.809-3.163,0.198-5.119,0      c-2.134,1.983-1.76,9.511,0.321,11.198c2.146,0.057,2.432,0.141,4.478,0c0.546,1.48,0.707,3.35,1.281,4.801      c-1.016,2.049-3.043,1.916-3.2,4.157c-0.223,3.196,7.676,11.873,10.559,5.12c1.671,0.885,3.137,1.98,5.118,2.559      c-0.022,2.111-0.27,2.562,0,4.48c2.549,1.885,10.204,2.306,12.797,0.319c0-1.386,0-2.772,0-4.16      c1.27-0.864,3.288-0.977,4.481-1.918c0.941,1.263,1.79,2.206,3.198,2.241c2.56,0.061,10.405-7.553,5.12-10.239      c0.433-1.806,1.625-2.856,1.921-4.799c1.666,0.024,2.371,0.512,3.837,0C101.51,101.362,102.18,94.88,101.249,91.341z       M89.899,97.266c0,8.005-6.49,14.496-14.496,14.496c-8.007,0-14.498-6.491-14.498-14.496c0-8.008,6.491-14.499,14.498-14.499      C83.409,82.767,89.899,89.258,89.899,97.266z"/>
				<g>
					<path style="fill:#C1DFEA;" d="M91.705,161.172c-1.652-1.927-5.139-1.518-7.999-0.959c-0.807-2.502-1.14-5.473-2.559-7.361       c1.193-2.541,4.813-3.28,5.12-6.716c0.283-3.192-3.141-7.286-5.76-7.361c-3.539-0.1-4.951,4.23-7.039,6.401       c-2.428-0.773-4.517-1.882-7.359-2.241c0.082-3.494-0.178-6.646-1.92-8.318c-2.727-0.666-6.451-1.022-8.317,0.641       c-1.007,2.087-0.655,5.755-0.322,8.319c-1.871,1.112-4.209,1.759-5.759,3.198c-2.43-1.542-3.365-5.174-7.038-5.12       c-2.669,0.038-6.53,3.327-6.718,5.439c-0.337,3.743,3.917,4.701,5.757,7.04c-1.036,2.162-2.727,3.669-3.197,6.398       c-7.388-0.987-11.549,3.935-8.96,10.877c1.854,1.604,6.565,1.545,9.597,0.96c0.81,1.325,1.126,3.139,1.922,4.479       c-0.907,2.705-4.684,3.43-4.801,6.719c-0.1,2.801,3.23,6.449,5.76,6.717c3.822,0.411,4.592-2.953,7.039-4.797       c1.379,0.753,3.1,1.166,4.481,1.919c0.111,3.3-0.463,7.287,0.958,9.279c2.372,1.481,7.171,1.118,9.278-0.322       c1.119-2.078,1.555-4.844,1.599-7.999c1.908-0.65,4.084-1.035,5.76-1.92c3.002,1.202,3.332,4.608,6.718,4.801       c2.909,0.163,6.984-3.398,7.04-6.401c0.053-2.834-2.358-4.422-4.159-6.4c1.325-2.086,2.181-4.641,2.878-7.358       C90.711,173.464,93.511,167.588,91.705,161.172z M80.067,165.849c0,10.357-8.397,18.753-18.755,18.753       c-10.358,0-18.751-8.395-18.751-18.753c0-10.358,8.393-18.755,18.751-18.755C71.67,147.094,80.067,155.49,80.067,165.849z"/>
					<path style="fill:#C1DFEA;" d="M61.312,177.31c-6.33,0-11.463-5.131-11.463-11.461c0-6.332,5.133-11.464,11.463-11.464       c6.332,0,11.463,5.131,11.463,11.464C72.775,172.179,67.644,177.31,61.312,177.31z"/>
				</g>
				<g>
					<path style="fill:#FFAE24;" d="M189.995,110.687c-2.037-1.275-5.187-1.238-8.319-0.959c-1.614-1.801-1.804-5.021-3.52-6.719       c3.469-4.078,7.25-8.366,2.56-13.758c-1.062-1.219-2.86-3.232-4.161-3.518c-4.505-0.995-6.639,3.19-9.597,5.119       c-2.345-1.173-4.817-2.222-7.998-2.559c-0.882-3.706-0.812-8.359-3.2-10.558c-7.71-2.552-15.599-0.891-13.758,9.278       c-2.851,1.201-6.258,1.848-8.318,3.839c-2.925-1.262-5.461-4.598-9.277-4.16c-2.327,0.269-6.791,4.462-7.04,7.04       c-0.362,3.789,2.625,5.112,4.48,7.679c-2.071,2.834-3.77,6.042-4.48,10.238c-3.623,0.365-7.817,0.11-9.279,3.2       c-1.105,2.342-1.061,8.091,0,9.918c1.68,2.891,5.936,2.251,10.24,2.56c1.376,2.673,2.324,5.781,3.838,8.317       c-1.927,3.216-5.162,5.129-4.159,9.28c0.544,2.245,6.173,6.783,8.96,6.718c3.425-0.078,4.548-2.826,6.717-4.799       c2.39,1.661,5.451,2.652,8.318,3.838c0.302,3.383-0.696,5.598,0.962,7.999c2.295,3.328,11.135,3.114,13.436,1.28       c2.619-2.085,1.499-5.485,1.921-9.279c2.369-1.467,5.652-2.024,7.676-3.838c3.289,1.368,3.389,5.105,7.04,5.759       c5.139,0.918,11.417-5.193,11.198-9.598c-0.18-3.669-3.823-4.753-5.441-7.678c1.351-2.811,2.819-5.502,3.522-8.958       c3.363-0.846,7.868-0.609,9.599-4.161C193.636,118.674,192.778,112.429,189.995,110.687z M174.04,118.252       c0,13.045-10.577,23.62-23.62,23.62c-13.049,0-23.623-10.575-23.623-23.62c0-13.047,10.574-23.623,23.623-23.623       C163.463,94.629,174.04,105.206,174.04,118.252z"/>
					<path style="fill:#FFAE24;" d="M150.42,126.753c-4.699,0-8.504-3.807-8.504-8.501c0-4.696,3.804-8.504,8.504-8.504       c4.693,0,8.501,3.808,8.501,8.504C158.921,122.947,155.113,126.753,150.42,126.753z"/>
				</g>
			</g>
		</g>
		<g>
			<g>
				<path style="fill:#CCE5EF;" d="M497.285,296.167c1.32,0.064,2.341,1.183,2.278,2.501l-1.585,33.714      c-0.063,1.318-1.185,2.338-2.504,2.274l-93.796-4.416c-1.318-0.061-2.337-1.179-2.276-2.499l1.587-33.714      c0.065-1.316,1.18-2.332,2.504-2.271L497.285,296.167z"/>
				<g>
					<path style="fill:#FF4E4E;" d="M491.16,300.954c1.319,0.062,2.339,1.18,2.276,2.499l-1.11,23.584       c-0.063,1.32-1.178,2.338-2.502,2.278l-7.899-0.374c-1.319-0.063-2.336-1.181-2.277-2.502l1.111-23.582       c0.061-1.318,1.178-2.341,2.499-2.277L491.16,300.954z"/>
					<path style="fill:#FF4E4E;" d="M474.442,300.168c1.322,0.064,2.339,1.18,2.276,2.499l-1.107,23.584       c-0.061,1.317-1.183,2.338-2.503,2.274l-7.9-0.37c-1.322-0.063-2.336-1.181-2.279-2.5l1.113-23.587       c0.061-1.316,1.182-2.335,2.499-2.273L474.442,300.168z"/>
					<path style="fill:#FF4E4E;" d="M457.728,299.382c1.319,0.061,2.336,1.18,2.273,2.497l-1.111,23.588       c-0.061,1.316-1.182,2.336-2.497,2.271l-7.903-0.368c-1.32-0.065-2.337-1.187-2.274-2.503l1.108-23.585       c0.062-1.318,1.179-2.336,2.501-2.273L457.728,299.382z"/>
					<path style="fill:#FF4E4E;" d="M441.007,298.592c1.32,0.061,2.339,1.185,2.276,2.503l-1.108,23.585       c-0.062,1.32-1.183,2.337-2.504,2.274l-7.901-0.373c-1.319-0.061-2.336-1.183-2.273-2.499l1.11-23.585       c0.061-1.319,1.182-2.334,2.497-2.274L441.007,298.592z"/>
					<path style="fill:#FF4E4E;" d="M424.29,297.807c1.317,0.061,2.338,1.181,2.278,2.499l-1.113,23.585       c-0.061,1.319-1.18,2.339-2.499,2.276l-7.904-0.374c-1.314-0.061-2.336-1.181-2.273-2.499l1.107-23.584       c0.065-1.32,1.182-2.336,2.497-2.275L424.29,297.807z"/>
				</g>
			</g>
			<g>
				<path style="fill:#F8FAFF;" d="M486.727,250.972c1.184-0.576,2.616-0.084,3.198,1.103l14.77,30.342      c0.582,1.189,0.084,2.622-1.103,3.197l-84.427,41.109c-1.182,0.578-2.614,0.084-3.19-1.102l-14.777-30.345      c-0.578-1.188-0.084-2.619,1.105-3.193L486.727,250.972z"/>
				<g>
					<path style="fill:#FFAE24;" d="M483.646,258.111c1.187-0.576,2.618-0.083,3.193,1.104l10.337,21.228       c0.58,1.187,0.086,2.618-1.103,3.195l-7.112,3.463c-1.187,0.578-2.618,0.082-3.198-1.104l-10.336-21.226       c-0.579-1.189-0.083-2.62,1.104-3.198L483.646,258.111z"/>
					<path style="fill:#FFAE24;" d="M468.596,265.439c1.19-0.579,2.619-0.083,3.198,1.104l10.336,21.226       c0.58,1.189,0.088,2.618-1.101,3.197l-7.112,3.46c-1.192,0.583-2.619,0.085-3.197-1.101l-10.334-21.228       c-0.58-1.186-0.089-2.618,1.101-3.195L468.596,265.439z"/>
					<path style="fill:#FFAE24;" d="M453.551,272.766c1.184-0.576,2.618-0.087,3.197,1.103l10.336,21.228       c0.576,1.186,0.084,2.619-1.101,3.193l-7.117,3.465c-1.187,0.578-2.618,0.083-3.197-1.101l-10.335-21.228       c-0.58-1.19-0.086-2.62,1.107-3.201L453.551,272.766z"/>
					<path style="fill:#FFAE24;" d="M438.503,280.093c1.187-0.578,2.618-0.086,3.195,1.102l10.337,21.228       c0.575,1.189,0.085,2.619-1.103,3.198l-7.114,3.461c-1.184,0.58-2.616,0.087-3.192-1.103l-10.338-21.225       c-0.582-1.189-0.084-2.62,1.099-3.196L438.503,280.093z"/>
					<path style="fill:#F8FAFF;" d="M423.456,287.42c1.187-0.581,2.618-0.082,3.19,1.102l10.34,21.229       c0.577,1.185,0.088,2.617-1.101,3.195l-7.114,3.461c-1.185,0.576-2.616,0.086-3.193-1.103l-10.337-21.226       c-0.577-1.188-0.084-2.619,1.103-3.194L423.456,287.42z"/>
				</g>
			</g>
			<g>
				<g>
					<path style="fill:#CCE5EF;" d="M456.064,216.379c0.768-1.075,2.262-1.322,3.335-0.552l27.451,19.632       c1.072,0.769,1.319,2.266,0.551,3.337l-54.63,76.371c-0.77,1.076-2.262,1.325-3.332,0.552l-27.456-19.632       c-1.07-0.77-1.317-2.261-0.547-3.336L456.064,216.379z"/>
					<g>
						<path style="fill:#00AF92;" d="M456.758,224.125c0.77-1.077,2.26-1.325,3.335-0.557l19.204,13.737        c1.072,0.77,1.321,2.26,0.551,3.338l-4.603,6.432c-0.766,1.073-2.26,1.321-3.336,0.554l-19.204-13.739        c-1.073-0.768-1.318-2.258-0.554-3.332L456.758,224.125z"/>
						<path style="fill:#00AF92;" d="M447.024,237.736c0.768-1.076,2.259-1.323,3.335-0.553l19.198,13.736        c1.076,0.768,1.323,2.261,0.557,3.332l-4.604,6.438c-0.77,1.075-2.261,1.32-3.337,0.552l-19.202-13.738        c-1.073-0.766-1.324-2.259-0.554-3.333L447.024,237.736z"/>
						<path style="fill:#00AF92;" d="M437.284,251.348c0.766-1.077,2.259-1.325,3.332-0.555l19.204,13.737        c1.073,0.768,1.319,2.262,0.554,3.335l-4.604,6.434c-0.766,1.073-2.261,1.324-3.335,0.553l-19.203-13.733        c-1.073-0.768-1.32-2.264-0.549-3.338L437.284,251.348z"/>
						<path style="fill:#00AF92;" d="M427.545,264.959c0.768-1.075,2.262-1.32,3.335-0.553l19.206,13.739        c1.073,0.767,1.319,2.26,0.552,3.331l-4.601,6.436c-0.766,1.076-2.264,1.321-3.337,0.552l-19.202-13.737        c-1.075-0.766-1.322-2.26-0.556-3.332L427.545,264.959z"/>
						<path style="fill:#00AF92;" d="M417.811,278.572c0.766-1.076,2.26-1.322,3.334-0.554l19.199,13.736        c1.078,0.77,1.327,2.258,0.559,3.335l-4.605,6.432c-0.768,1.076-2.26,1.325-3.335,0.555l-19.202-13.736        c-1.076-0.77-1.325-2.261-0.554-3.332L417.811,278.572z"/>
					</g>
				</g>
				<path style="fill:#F8FAFF;" d="M409.71,290.146c1.477,0.485,2.283,2.071,1.801,3.55c-0.482,1.474-2.074,2.282-3.549,1.801      c-1.478-0.483-2.283-2.073-1.799-3.55C406.643,290.471,408.23,289.663,409.71,290.146"/>
			</g>
		</g>
		<g>
			<g>
				<g>
					<g>
						<path style="fill-rule:evenodd;clip-rule:evenodd;fill:#568EAF;" d="M229.901,392.659c25.152,0.652,52.741,0.232,76.788,0.962        c2.85,10.973,2.706,23.152,10.876,28.474c6.76,4.402,17.756,3.077,24.639,7.679c4.235,2.834,6.095,7.527,7.676,13.118        c-53.511-1.659-109.214-2.722-163.492-2.56c0.545-3.695,2.162-8.501,5.12-10.557c6.134-4.266,17.824-1.787,24.956-5.439        c9.673-4.952,9.573-18.326,12.797-30.713C229.536,393.361,229.45,392.743,229.901,392.659z"/>
						<path style="fill:#42758A;" d="M306.689,393.62c-24.047-0.73-51.636-0.31-76.788-0.962c-0.451,0.084-0.365,0.702-0.639,0.962        c-1.762,6.767-2.538,13.822-4.453,19.644h86.348C309.064,407.495,308.433,400.334,306.689,393.62z"/>
					</g>
					<g>
						<path style="fill-rule:evenodd;clip-rule:evenodd;fill:#F8FAFF;" d="M217.935,431.439c-1.906-2.864,6.932-4.013,5.844-0.808        C223.208,432.307,219.503,432.017,217.935,431.439z"/>
						<path style="fill-rule:evenodd;clip-rule:evenodd;fill:#F8FAFF;" d="M212.536,428.826c0.703,0.184,2.048,0.945,1.568,2.33        c-0.626,1.81-4.394,2.56-5.832,3.143c-1.745,0.708-4.717,2.826-6.383,1.508c-2.376-1.88,2.536-4.317,4.263-5.085        c0.917-0.407,1.852-0.72,2.646-1.024C210.153,429.175,211.181,428.466,212.536,428.826z"/>
					</g>
				</g>
				<g>
					<g>
						<path style="fill-rule:evenodd;clip-rule:evenodd;fill:#568EAF;" d="M360.761,170.297c5.349-0.254,13.68-0.233,21.757,0        c16.65,0.483,35.036-1.173,39.992,11.519c2.453,6.284,2.828,15.684,3.198,24.956c0.359,8.967-0.366,18.434-0.637,27.194        c-1.206,38.36-5.121,67.554-5.121,106.863c0,8.642-0.551,17.804-1.279,26.555c-1.018,12.195-1.055,24.689-9.598,28.796        c-3.862,1.855-10.927,1.048-17.6,1.279c-6.426,0.222-13.074-0.45-18.557-0.642c-13.344-0.46-25.767-0.897-37.11-1.279        c-27.212-0.909-50.444-0.319-76.148-0.319c-24.273,0-49.987,1.358-75.828,0.639c-22.017-0.612-52.114,2.516-69.107-6.08        c-13.518-6.837-14.626-23.931-15.357-44.471c-1.431-40.178,2.291-77.18,3.2-115.181c0.217-9.093,0.208-19.609,0.641-29.115        c0.498-10.982,1.734-22.022,6.397-25.915c4.708-3.933,17.358-4.159,28.156-4.159c11.28,0,22.114,0.409,31.675,0.639        c62.701,1.501,127.897-1.271,190.686-1.281C360.332,170.297,360.545,170.308,360.761,170.297z"/>
						<g>
							<g>
								<path style="fill-rule:evenodd;clip-rule:evenodd;fill:#F8FAFF;" d="M110.309,357.538c-3.128,1.436-2.884-7.475,0.113-5.897          C111.986,352.464,111.125,356.077,110.309,357.538z"/>
								<path style="fill-rule:evenodd;clip-rule:evenodd;fill:#F8FAFF;" d="M106.883,362.461c0.294-0.666,1.254-1.873,2.548-1.183          c1.689,0.898,1.843,4.739,2.194,6.247c0.426,1.836,2.056,5.104,0.494,6.542c-2.227,2.054-3.867-3.179-4.357-5.003          c-0.26-0.969-0.42-1.944-0.601-2.775C106.857,364.868,106.32,363.745,106.883,362.461z"/>
							</g>
							<g>
								<path style="fill-rule:evenodd;clip-rule:evenodd;fill:#F8FAFF;" d="M173.503,383.154c2.394-0.689,6.446,0.426,10.357,1.762          c1.676,0.57,4.373,1.54,4.031,3.095c-0.409,1.869-3.646,1.255-4.801,1.032c-3.665-0.71-7.944-2.309-9.973-3.827          C172.839,384.698,173.068,383.676,173.503,383.154z"/>
								<path style="fill-rule:evenodd;clip-rule:evenodd;fill:#F8FAFF;" d="M192.385,381.051c0.1-4.017,8.72-2.323,7.72,0.857          c-0.435,1.379-4.911,2.119-6.789,1.027C192.644,382.541,192.37,381.749,192.385,381.051z"/>
								<path style="fill-rule:evenodd;clip-rule:evenodd;fill:#F8FAFF;" d="M201.257,386.923c-0.114-1.421,1.724-2.368,3.78-2.576          c1.654-0.166,4.892,0.27,4.474,2.132c-0.18,0.827-1.556,1.781-3.261,1.997C204.254,388.732,201.403,388.753,201.257,386.923          z"/>
							</g>
							<g>
								<path style="fill-rule:evenodd;clip-rule:evenodd;fill:#C1DFEA;" d="M331.36,364.748c2.256,1.058,6.432,0.603,10.511-0.094          c1.742-0.299,4.558-0.827,4.47-2.417c-0.106-1.91-3.402-1.818-4.578-1.783c-3.73,0.12-8.211,1.018-10.453,2.194          C330.953,363.116,331.017,364.16,331.36,364.748z"/>
								<path style="fill-rule:evenodd;clip-rule:evenodd;fill:#C1DFEA;" d="M342.304,368.638c-0.54,3.98,8.24,3.679,7.756,0.381          c-0.21-1.43-4.513-2.872-6.54-2.094C342.794,367.208,342.398,367.945,342.304,368.638z"/>
							</g>
							<g>
								<path style="fill-rule:evenodd;clip-rule:evenodd;fill:#42758A;" d="M370.134,387.746c2.256-1.059,6.432-0.603,10.508,0.094          c1.745,0.298,4.558,0.827,4.47,2.417c-0.108,1.91-3.402,1.818-4.578,1.781c-3.73-0.12-8.207-1.017-10.453-2.192          C369.725,389.376,369.787,388.333,370.134,387.746z"/>
								<path style="fill-rule:evenodd;clip-rule:evenodd;fill:#42758A;" d="M385.63,385.288c-0.542-3.981,8.239-3.68,7.757-0.381          c-0.212,1.431-4.513,2.871-6.539,2.092C386.122,386.717,385.726,385.98,385.63,385.288z"/>
								<path style="fill-rule:evenodd;clip-rule:evenodd;fill:#42758A;" d="M402.507,388.191c-0.339-1.387,1.327-2.613,3.322-3.146          c1.608-0.426,4.873-0.509,4.756,1.396c-0.049,0.842-1.252,2.004-2.899,2.487          C405.753,389.499,402.943,389.974,402.507,388.191z"/>
							</g>
						</g>
					</g>
					<g>
						<path style="fill-rule:evenodd;clip-rule:evenodd;fill:#C1DFEA;" d="M139.594,184.699c9.154-0.717,20.362,1.085,30.699,1.632        c10.405,0.554,21.038,0,31.68,0c21.012,0,42.38-0.979,63.682-0.979c17.55,0,45.534-0.653,62.705-0.653        c10.013,0,20.941,0.326,32.006,0.326c10.137,0,21.74-0.689,30.374,1.634c5.853,1.573,14.717,6.448,17.636,13.716        c4.011,9.995,2.434,26.878,1.959,40.17c-0.495,13.92-1.305,27.482-1.305,41.805c0,13.36-0.712,28.039-1.308,42.13        c-0.642,15.283-0.586,30.14-11.102,34.617c-8.024,3.419-22.649-0.137-32.987-0.65c-35.408-1.766-68.186-2.94-105.488-2.94        c-22.02,0-45.79,0.325-71.849,0.325c-18.089,0-34.457,0.66-51.274-1.632c-5.724-0.781-11.047-2.319-13.391-4.574        c-6.036-5.806-4.899-23.181-4.899-36.25c0-28.316,0.715-51.257-0.654-80.668c-0.312-6.688-0.672-13.835,0-20.248        c1.198-11.423,2.716-20.916,10.451-25.149C130.026,185.4,136.033,184.978,139.594,184.699z"/>
						<g>
							<g>
								<path style="fill-rule:evenodd;clip-rule:evenodd;fill:#F8FAFF;" d="M347.491,185.747c2.255,1.06,6.432,0.603,10.507-0.094          c1.745-0.297,4.558-0.828,4.47-2.417c-0.107-1.911-3.402-1.818-4.578-1.782c-3.73,0.121-8.208,1.017-10.453,2.193          C347.081,184.116,347.144,185.16,347.491,185.747z"/>
								<path style="fill-rule:evenodd;clip-rule:evenodd;fill:#F8FAFF;" d="M358.433,189.637c-0.543,3.98,8.238,3.68,7.757,0.381          c-0.213-1.429-4.514-2.871-6.541-2.092C358.924,188.208,358.527,188.945,358.433,189.637z"/>
								<path style="fill-rule:evenodd;clip-rule:evenodd;fill:#F8FAFF;" d="M380.788,185.25c-0.337,1.385,1.326,2.61,3.323,3.145          c1.606,0.426,4.871,0.509,4.754-1.396c-0.048-0.842-1.251-2.003-2.9-2.488C384.034,183.94,381.223,183.466,380.788,185.25z"/>
							</g>
							<g>
								<path style="fill-rule:evenodd;clip-rule:evenodd;fill:#F8FAFF;" d="M182.54,188.202c-2.256,1.06-6.433,0.604-10.511-0.095          c-1.742-0.298-4.558-0.825-4.47-2.415c0.109-1.911,3.402-1.82,4.578-1.784c3.73,0.121,8.211,1.018,10.453,2.195          C182.947,186.572,182.886,187.617,182.54,188.202z"/>
								<path style="fill-rule:evenodd;clip-rule:evenodd;fill:#F8FAFF;" d="M171.596,192.093c0.54,3.981-8.24,3.68-7.756,0.381          c0.212-1.431,4.513-2.871,6.54-2.094C171.106,190.664,171.5,191.401,171.596,192.093z"/>
								<path style="fill-rule:evenodd;clip-rule:evenodd;fill:#F8FAFF;" d="M149.239,187.706c0.34,1.385-1.324,2.611-3.321,3.144          c-1.606,0.425-4.871,0.511-4.756-1.395c0.048-0.844,1.254-2.002,2.902-2.487          C145.994,186.396,148.804,185.922,149.239,187.706z"/>
							</g>
							<g>
								<path style="fill-rule:evenodd;clip-rule:evenodd;fill:#F8FAFF;" d="M132.198,342.299c2.255-1.059,6.432-0.603,10.506,0.094          c1.745,0.297,4.561,0.828,4.47,2.417c-0.107,1.911-3.402,1.817-4.574,1.781c-3.733-0.121-8.211-1.019-10.454-2.194          C131.791,343.931,131.85,342.886,132.198,342.299z"/>
								<path style="fill-rule:evenodd;clip-rule:evenodd;fill:#F8FAFF;" d="M147.695,339.841c-0.539-3.981,8.24-3.678,7.757-0.38          c-0.213,1.43-4.514,2.871-6.54,2.094C148.185,341.272,147.79,340.533,147.695,339.841z"/>
								<path style="fill-rule:evenodd;clip-rule:evenodd;fill:#F8FAFF;" d="M164.57,342.744c-0.337-1.385,1.327-2.611,3.324-3.145          c1.605-0.427,4.87-0.51,4.755,1.395c-0.05,0.844-1.253,2.003-2.899,2.487C167.818,344.052,165.006,344.527,164.57,342.744z"/>
							</g>
						</g>
					</g>
				</g>
			</g>
			<g>
				<g>
					<g>
						<polygon style="fill:#42758A;" points="343.172,214.971 342.576,213.78 341.98,214.971 338.404,213.182 342.576,204.835         346.748,213.182       "/>
						<path style="fill:#42758A;" d="M304.426,290.076l-3.577-1.788l4.552-9.103l3.577,1.789L304.426,290.076z M310.687,277.559        l-3.579-1.789l4.552-9.103l3.579,1.788L310.687,277.559z M316.944,265.041l-3.577-1.789l4.553-9.104l3.576,1.79        L316.944,265.041z M323.202,252.524l-3.577-1.789l4.553-9.103l3.576,1.789L323.202,252.524z M329.461,240.007l-3.576-1.79        l4.552-9.103l3.577,1.79L329.461,240.007z M335.72,227.488l-3.576-1.788l4.552-9.106l3.577,1.79L335.72,227.488z"/>
						<polygon style="fill:#42758A;" points="303.879,299.366 295.31,299.366 299.141,291.702 302.721,293.491 301.783,295.365         303.879,295.365       "/>
						<path style="fill:#42758A;" d="M377.269,299.366h-10.674v-4h10.674V299.366z M362.592,299.366h-10.676v-4h10.676V299.366z         M347.914,299.366H337.24v-4h10.674V299.366z M333.234,299.366h-10.675v-4h10.675V299.366z M318.557,299.366h-10.674v-4        h10.674V299.366z"/>
						<polygon style="fill:#42758A;" points="389.84,299.366 381.271,299.366 381.271,295.365 383.368,295.365 382.43,293.491         386.01,291.702       "/>
						<path style="fill:#42758A;" d="M380.725,290.076l-4.553-9.104l3.577-1.787l4.552,9.103L380.725,290.076z M374.465,277.559        l-4.552-9.104l3.579-1.788l4.552,9.103L374.465,277.559z M368.206,265.041l-4.552-9.103l3.577-1.79l4.552,9.104        L368.206,265.041z M361.946,252.524l-4.548-9.104l3.576-1.789l4.553,9.103L361.946,252.524z M355.689,240.006l-4.552-9.102        l3.576-1.79l4.553,9.103L355.689,240.006z M349.432,227.488l-4.553-9.103l3.577-1.79l4.552,9.104L349.432,227.488z"/>
					</g>
					<g>
						<path style="fill:#FFD837;" d="M260.466,276.736c4.999-6.306,43.234-28.1,43.234-28.1c1.19-6.567,1.22-13.597-0.102-20.621        c-2.115-11.245-10.093-21.302-16.904-25.711c-11.194-7.235-24.051-12.144-42.192-5.475c-0.259,0.096-0.543,0.118-0.806,0.206        c-15.215,4.992-25.296,18.463-28.45,29.63c-2.089,7.394-2.077,16.662-0.315,25.373        C214.931,252.038,257.861,273.54,260.466,276.736z"/>
						<g>
							<g>
								<path style="fill-rule:evenodd;clip-rule:evenodd;fill:#42758A;" d="M142.17,204.135c2.234-1.651,4.664-1.699,6.319,0.525          c2.402,3.223,0.4,7.79-2.603,9.25c-1.815,0.885-4.219,0.527-5.439-1.053C138.358,210.152,139.654,205.997,142.17,204.135z"/>
								<path style="fill-rule:evenodd;clip-rule:evenodd;fill:#42758A;" d="M142.17,316.37c2.234-1.651,4.664-1.699,6.319,0.527          c2.402,3.221,0.4,7.788-2.603,9.247c-1.815,0.888-4.219,0.529-5.439-1.051C138.358,322.386,139.654,318.232,142.17,316.37z"/>
								<path style="fill-rule:evenodd;clip-rule:evenodd;fill:#42758A;" d="M254.404,204.135c2.234-1.651,4.664-1.699,6.32,0.525          c2.399,3.223,0.398,7.79-2.601,9.25c-1.816,0.885-4.221,0.527-5.44-1.053C250.592,210.152,251.888,205.997,254.404,204.135z          "/>
								<path style="fill-rule:evenodd;clip-rule:evenodd;fill:#42758A;" d="M254.404,316.37c2.234-1.651,4.664-1.699,6.32,0.527          c2.399,3.221,0.398,7.788-2.601,9.247c-1.816,0.888-4.221,0.529-5.44-1.051C250.592,322.386,251.888,318.232,254.404,316.37          z"/>
							</g>
							<g>
								<polygon style="fill:#42758A;" points="258.714,322.896 251.381,322.896 251.381,318.898 254.714,318.898 254.714,315.565           258.714,315.565         "/>
								<path style="fill:#42758A;" d="M247.574,322.896h-10.157v-3.998h10.157V322.896z M233.605,322.896H223.45v-3.998h10.155          V322.896z M219.64,322.896h-10.155v-3.998h10.155V322.896z M205.676,322.896h-10.156v-3.998h10.156V322.896z           M191.71,322.896h-10.158v-3.998h10.158V322.896z M177.743,322.896h-10.156v-3.998h10.156V322.896z M163.777,322.896          h-10.155v-3.998h10.155V322.896z"/>
								<polygon style="fill:#42758A;" points="149.812,322.896 142.479,322.896 142.479,315.565 146.48,315.565 146.48,318.898           149.812,318.898         "/>
								<path style="fill:#42758A;" d="M146.48,311.755h-4.001v-10.157h4.001V311.755z M146.48,297.789h-4.001v-10.158h4.001          V297.789z M146.48,283.823h-4.001v-10.157h4.001V283.823z M146.48,269.857h-4.001v-10.156h4.001V269.857z M146.48,255.892          h-4.001v-10.158h4.001V255.892z M146.48,241.926h-4.001v-10.157h4.001V241.926z M146.48,227.96h-4.001v-10.157h4.001V227.96          z"/>
								<polygon style="fill:#42758A;" points="146.48,213.993 142.479,213.993 142.479,206.663 149.812,206.663 149.812,210.661           146.48,210.661         "/>
								<path style="fill:#42758A;" d="M247.571,210.661h-10.155v-3.998h10.155V210.661z M233.605,210.661H223.45v-3.998h10.155          V210.661z M219.64,210.661h-10.158v-3.998h10.158V210.661z M205.676,210.661h-10.158v-3.998h10.158V210.661z           M191.708,210.661h-10.156v-3.998h10.156V210.661z M177.743,210.661h-10.156v-3.998h10.156V210.661z M163.777,210.661          H153.62v-3.998h10.157V210.661z"/>
								<polygon style="fill:#42758A;" points="258.714,213.993 254.714,213.993 254.714,210.661 251.381,210.661 251.381,206.663           258.714,206.663         "/>
								<path style="fill:#42758A;" d="M258.714,311.755h-4v-10.156h4V311.755z M258.714,297.789h-4v-10.158h4V297.789z           M258.714,283.825h-4v-10.158h4V283.825z M258.714,269.857h-4v-10.156h4V269.857z M258.714,255.892h-4v-10.158h4V255.892z           M258.714,241.926h-4v-10.157h4V241.926z M258.714,227.961h-4v-10.158h4V227.961z"/>
							</g>
						</g>
						<path style="fill:#FF4E4E;" d="M259.117,282.703c0,0-10.62-11.07-16.623-19.88c-3.394-4.981-27.563-10.785-27.563-10.785        c-1.355,0.384-2.728,0.811-4.145,1.331c-0.256,0.098-0.543,0.12-0.804,0.209c-15.217,4.992-25.298,18.465-28.447,29.629        c-3.735,13.213-0.776,32.413,6.936,43.724c10.1,14.822,35.198,22.07,56.347,12.142c5.122-2.404,10.714-7,14.351-10.984        c0.596-0.652,1.171-1.328,1.724-2.026l0.504-1.971C261.397,324.092,257.357,295.346,259.117,282.703z"/>
						<path style="fill:#FFAC42;" d="M252.11,286.773c2.604-1.208,6.775-3.977,7.261-5.7c1.368-4.844,2.518-9.053,1.729-14.698        c-2.605-3.196-5.45-5.801-8.121-7.527c-10.319-6.674-22.062-11.342-38.047-6.809c1.387,6.856,3.859,13.369,7.253,18.35        C228.187,279.198,239.487,285.33,252.11,286.773z"/>
						<path style="fill:#568EAF;" d="M341.577,282.677c-2.118-11.243-10.095-21.303-16.907-25.708        c-6.257-4.047-13.037-7.361-20.97-8.333l-12.407,7.257c0,0-10.246,6.483-15.366,8.887        c-2.777,1.303-11.814,13.672-14.681,14.406c2.573,15.165-0.352,46.878-0.352,46.878c10.536,14.134,34.957,20.83,55.621,11.133        c5.118-2.404,10.711-7,14.348-10.985C340.377,315.798,344.686,299.213,341.577,282.677z"/>
						<path style="fill:#00AF92;" d="M282.478,251.494c-0.255,0.094-0.542,0.117-0.803,0.204        c-8.615,2.828-15.578,8.37-20.577,14.676c-2.385,7.292-1.771,13.636,6.716,18.042c0.305,0.158,2.232,1.148,2.232,1.148        c2.867-0.733,5.711-1.732,8.488-3.035c5.12-2.404,10.711-7,14.349-10.983c5.472-5.988,9.211-14.024,10.816-22.912        C297.447,247.868,290.477,248.553,282.478,251.494z"/>
						<path style="fill:#6F6AAD;" d="M270.047,285.565c-6.678-5.625-11.776-8.829-17.937,1.208        c-1.76,12.644,1.349,28.445,8.051,38.28c0.233,0.343,0.485,0.678,0.733,1.01C269.014,315.828,272.62,300.729,270.047,285.565z        "/>
						<path style="fill:#F8FAFF;" d="M261.099,266.375c-3.831,4.831-6.505,10.111-7.873,14.955c-0.485,1.723-0.854,3.55-1.116,5.443        c5.827,0.667,11.936,0.325,17.937-1.208c-0.059-0.335-0.1-0.672-0.163-1.009C268.597,277.719,265.14,271.33,261.099,266.375z"/>
					</g>
				</g>
				<path style="fill-rule:evenodd;clip-rule:evenodd;fill:#F8FAFF;" d="M400.575,346.83c0.003-2.776-3.497-5.366-6.664-7.998      c-7.887-6.554-17.329-14.74-24.919-21.156c-1.897-1.602-3.548-3.093-6.052-5.02c-2.206-1.702-4.766-3.158-6.567-2.081      c-2.097,1.257-1.985,4.655-1.995,6.7c-0.023,7.272,1.376,14.475,1.936,21.665c0.54,6.925,0.557,13.995,1.506,21.583      c0.268,2.142,0.466,5.778,2.509,7.318c2.447,1.844,9.75-2.503,12.978-4.129c0.353-0.178,0.881-0.424,1.549-0.728l6.549,11.921      c1.807,3.292,5.943,4.493,9.235,2.684l1.704-0.933c3.292-1.81,4.495-5.945,2.684-9.237l-6.109-11.12      C395.043,353.071,400.574,349.467,400.575,346.83z"/>
			</g>
		</g>
		<g>
			<g>
				<path style="fill-rule:evenodd;clip-rule:evenodd;fill:#B25B1A;" d="M91.587,206.6c-17.85,18.304-35.502,36.809-54.711,53.751      c-8.909-8.021-20.833-20.372-30.075-31.675c-2.834-3.463-13.208-17.105-0.959-17.595c0.59-7.089,3.636-11.721,12.157-10.881      c2.007-2.372,1.562-5.447,3.2-7.676c2.509-3.417,6.638-3.315,12.797-3.2c-0.481-4.461-1.009-9.478,2.56-10.239      c6.293-1.344,12.827,9.741,16.958,11.199c-1.229-3.414-3.188-6.107-5.12-9.279c-1.691-2.78-4.554-6.425-4.16-10.239      c0.293-2.825,3.409-5.523,7.358-4.799c3.447,0.629,8.043,6.253,10.879,9.277C71.825,185.22,83.958,197.394,91.587,206.6z"/>
				<g>
					<path style="fill-rule:evenodd;clip-rule:evenodd;fill:#F8FAFF;" d="M51.592,196.042c-2.176,0.312-4.049-2.013-5.439-3.518       c-1.483-1.611-3.306-3.596-3.837-5.76c0.257-0.274,0.874-0.191,0.959-0.639c0.372-0.052,0.568,0.069,0.637,0.32       c1.866,0.773,3.379,2.608,4.801,4.159C49.986,191.988,52.376,193.637,51.592,196.042z"/>
					<path style="fill-rule:evenodd;clip-rule:evenodd;fill:#F8FAFF;" d="M74.95,211.72c-2.048,0.889-3.996-0.79-5.439-1.921       c-1.479-1.157-2.98-2.66-4.16-3.839c-2.481-2.482-5.72-5.492-6.397-9.279c3.394-2.094,7.016,2.932,10.238,6.401       C71.823,205.914,75.385,208.823,74.95,211.72z"/>
					<path style="fill-rule:evenodd;clip-rule:evenodd;fill:#F8FAFF;" d="M60.552,204.681c-2.755,0.887-4.427-1.934-5.119-4.159       C57.626,199.269,60.24,202.036,60.552,204.681z"/>
					<path style="fill-rule:evenodd;clip-rule:evenodd;fill:#F8FAFF;" d="M30.478,213.958c-2.632-0.423-4.478-2.641-6.08-4.479       c-1.459-1.669-3.737-3.73-3.2-6.397c2.323-2.486,11.244,6.432,10.878,8.957C31.94,212.991,31.063,213.423,30.478,213.958z"/>
					<path style="fill-rule:evenodd;clip-rule:evenodd;fill:#F8FAFF;" d="M17.357,221.638c-2.175-0.112-2.554-1.593-4.157-3.2       c-0.676-0.678-5.84-5.076-1.92-5.439C12.965,212.845,19.082,219.727,17.357,221.638z"/>
					<path style="fill-rule:evenodd;clip-rule:evenodd;fill:#F8FAFF;" d="M29.197,232.195c-3.08,0.694-5.14-2.298-6.08-4.799       C25.856,226.166,28.637,229.247,29.197,232.195z"/>
				</g>
			</g>
			<g>
				<path style="fill-rule:evenodd;clip-rule:evenodd;fill:#FFAC42;" d="M35.055,258.235c3.332-4.903,7.683-9.562,11.706-14.561      c9.518-11.82,20.944-22.261,32.512-33.004c2.828-2.624,4.481-4.699,7.154-6.148c3.093-1.676,7.764,3.686,11.055,6.471      c3.13,2.65,7.121,5.619,7.153,9.384c0.033,4.033-3.207,5.571-5.204,7.767c-1.896,2.088-4.018,5.041-3.9,9.061      c0.166,5.54,4.783,8.64,7.804,11.647c3.392,3.375,7.055,6.472,9.753,9.383c6.893,7.433,15.931,16.193,15.931,29.122      c0,9.786-5.957,18.424-16.904,16.505c-3.591-0.631-7.222-3.003-9.758-5.178c-5.308-4.555-11.092-12.779-15.278-19.091      c-3.435-5.174-8.913-16.241-17.233-17.151c-4.44-0.485-7.816,1.832-10.73,3.883c-2.69,1.894-5.762,5.281-9.427,5.179      c-3.558-0.102-6.08-3.609-8.129-5.827C39.067,262.98,37.366,261.449,35.055,258.235z"/>
				<g>
					<path style="fill-rule:evenodd;clip-rule:evenodd;fill:#D8773A;" d="M96.829,218.761c-0.437,0.315-0.646,0.862-0.972,1.293       c-2.271,0.256-3.763-1.784-4.877-2.911c-1.166-1.183-2.954-2.684-2.926-4.855C90.347,209.154,96.39,215.667,96.829,218.761z"/>
					<path style="fill-rule:evenodd;clip-rule:evenodd;fill:#D8773A;" d="M92.931,224.26c0.285,2.562-0.711,6.323-3.253,7.118       C87.309,230.009,89.285,222.607,92.931,224.26z"/>
					<path style="fill-rule:evenodd;clip-rule:evenodd;fill:#D8773A;" d="M103.659,291.564c-3.286,0.622-6.195-3.574-8.129-5.824       c-2.062-2.394-5.149-5.439-4.877-8.737c0.605-0.043,1.087-0.212,1.301-0.646c2.76,1.027,4.91,4.39,7.153,7.118       C101.08,285.878,104.392,288.505,103.659,291.564z"/>
					<path style="fill-rule:evenodd;clip-rule:evenodd;fill:#D8773A;" d="M111.463,289.624c-1.687,0.522-5.415-2.42-5.202-3.884       C106.787,282.13,114.334,285.791,111.463,289.624z"/>
					<path style="fill-rule:evenodd;clip-rule:evenodd;fill:#D8773A;" d="M115.365,298.359c-0.173,0.26-0.343,0.525-0.325,0.971       c-2.399,1.685-7.213-1.445-7.154-3.238C108.014,292.045,114.82,295.531,115.365,298.359z"/>
				</g>
			</g>
		</g>
	</g>
	<g>
		<path style="fill-rule:evenodd;clip-rule:evenodd;fill:#F8FAFF;" d="M90.833,318.096c-3.845,1.936-5.683-0.368-7.679-1.677    c-6.704-4.402-12.747-7.564-23.023-8.891c-11.828-1.529-26.742-0.046-34.301-6.754c-7.175-6.366-3.988-16.342,5.947-18.477    c7.044-1.513,13.623,0.722,19.447,3.055c13.563,5.427,25.74,14.658,35.496,25.053C88.602,312.409,91.831,314.832,90.833,318.096z"/>
		<path style="fill-rule:evenodd;clip-rule:evenodd;fill:#F8FAFF;" d="M84.536,331.149c-1.126,3.28-3.479,2.987-5.366,3.354    c-6.341,1.238-11.601,2.819-18.267,7.837c-7.675,5.777-15.432,15.024-23.561,15.412c-7.718,0.372-11.494-7.167-6.972-13.988    c3.207-4.838,8.255-7.251,12.92-9.188c10.868-4.506,23.079-6.041,34.549-5.543C80.052,329.129,83.275,328.709,84.536,331.149z"/>
	</g>
</g>















</svg>
