<?xml version="1.0" encoding="UTF-8"?>
<!-- Generator: Adobe Illustrator 25.2.1, SVG Export Plug-In . SVG Version: 6.00 Build 0)  -->
<svg xmlns="http://www.w3.org/2000/svg" xmlns:xlink="http://www.w3.org/1999/xlink" version="1.1" id="Capa_1" x="0px" y="0px" viewBox="0 0 512 512" style="enable-background:new 0 0 512 512;" xml:space="preserve" width="512" height="512">
<g>
	<path style="fill-rule:evenodd;clip-rule:evenodd;fill:#568EAF;" d="M270.595,348.174c-6.91,1.048-12.027,4.332-17.532,6.815   c-35.165,15.878-74.265,30.681-110.091,47.062c-2.74,1.256-6.21,3.441-8.161,3.748c-3.475,0.541-9.691-1.601-14.458-2.671   c-32.623-7.329-58.272-23.275-78.281-44.432C19.973,335.324,0.061,300.248,0,253.203c-0.024-20.891,4.666-39.897,11.545-56.746   c16.273-39.856,47.965-71.503,93.028-86.471c4.82-1.601,9.839-2.767,15.074-3.92c41.116-9.051,80.004,0.968,106.337,15.596   c24.098,13.378,43.31,32.413,56.882,55.787c14.171,24.395,23.842,59.168,19.955,93.824   C299.325,302.45,286.939,327.481,270.595,348.174z"/>
	<g>
		<path style="fill-rule:evenodd;clip-rule:evenodd;fill:#00AF93;" d="M453.142,326.005c-0.976-5.434-2.794-10.662-4.016-16.224    c-1.259-5.738-2.094-11.707-3.344-17.433c-7.46-34.164-16.786-67.813-29.829-92.245c-8.576-16.059-17.431-28.257-31.499-37.079    c-2.124-1.333-4.73-2.688-5.727-4.151c-1.273-1.867-1.943-5.443-3.009-8.614c-5.446-16.183-9.019-27.391-14.322-41.679    c8.428-4.106,13.909-13.069,13.101-22.97c-1.048-12.908-12.36-22.51-25.258-21.459c-12.901,1.051-22.509,12.36-21.458,25.258    c1.042,12.777,12.149,22.324,24.899,21.479c4.199,15.54,8.137,33.291,11.177,44.96c-16.158-1.147-25.532,8.44-32.65,14.975    c-6.953-16.24-12.974-33.625-20.237-49.965c6.943-4.552,11.245-12.659,10.524-21.514c-1.047-12.903-12.357-22.509-25.26-21.459    c-12.901,1.052-22.508,12.362-21.456,25.262c1.052,12.895,12.359,22.509,25.261,21.456c0.422-0.034,0.84-0.081,1.254-0.137    c7.053,20.836,14.664,40.73,21.798,60.102c-9.418,17.68-13.398,41.797-12.491,68.752c0.907,26.955,7.542,54.57,12.465,77.499    c-41.003,9.602-79.331,23.697-116.251,37.559c-34.814,13.065-68.258,27.878-97.978,44.534c-1.883,1.056-4.151,2.091-5.455,3.912    c109.502,4.091,238.841,4.405,356.214-16.301C458.561,376.89,457.503,350.297,453.142,326.005z"/>
		<g>
			<path style="fill-rule:evenodd;clip-rule:evenodd;fill:#F8FAFF;" d="M418.121,231.485c4.914-1.927,8.611,5.951,9.882,12.666     c0.65,3.412,0.727,8.66-1.927,9.389c-3.859,1.065-5.053-3.61-6.391-7.559C417.903,240.704,415.778,235.122,418.121,231.485z"/>
			<path style="fill-rule:evenodd;clip-rule:evenodd;fill:#00CEAE;" d="M419.806,266.369c-4.791,0.497-7.045-11.613-0.809-9.945     C420.191,258.706,422.497,264.567,419.806,266.369z"/>
			<path style="fill-rule:evenodd;clip-rule:evenodd;fill:#F8FAFF;" d="M430.292,262.819c1.432,2.591,5.449,14.238,0.834,14.946     c-2.41,0.364-2.633-2.282-3.527-5.484C426.297,267.596,424.019,260.921,430.292,262.819z"/>
			<path style="fill-rule:evenodd;clip-rule:evenodd;fill:#00CEAE;" d="M322.879,276.567c4.571-1.961,5.81,4.656,7.023,10.587     c0.907,4.446,1.712,11.297-2.157,11.341c-2.993,0.031-5.006-8.868-5.71-13.393C321.501,281.648,321.486,278.378,322.879,276.567z     "/>
			<path style="fill-rule:evenodd;clip-rule:evenodd;fill:#F8FAFF;" d="M342.36,303.081c-0.768,0.063-1.531,0.123-2.297,0.186     c-2.225-1.949-5.67-13.461,0.563-11.978C342.141,294.049,344.395,299.987,342.36,303.081z"/>
			<path style="fill-rule:evenodd;clip-rule:evenodd;fill:#00CEAE;" d="M332.21,310.83c2.584,2.591,5.711,9.949,3.034,13.61     C331.102,326.846,323.788,310.676,332.21,310.83z"/>
			<path style="fill-rule:evenodd;clip-rule:evenodd;fill:#00CEAE;" d="M288.319,357.897c-0.878-4.19,3.497-5.694,7.119-7.127     c3.467-1.372,7.938-2.692,11.283-3.224c2.86-0.459,8.585-1.232,9.364,1.548c1.409,5.04-7.879,5.673-12.149,6.759     C298.911,357.138,292.847,359.512,288.319,357.897z"/>
			<path style="fill-rule:evenodd;clip-rule:evenodd;fill:#F8FAFF;" d="M336.284,346.677c0.309,0.896,0.691,1.7,0.631,3.029     c-1.671,2.697-8.388,3.869-8.822,0.331C327.761,347.346,333.077,345.071,336.284,346.677z"/>
			<path style="fill-rule:evenodd;clip-rule:evenodd;fill:#00CEAE;" d="M248.222,371.167c-3.907-4.538,4.481-7.928,9.285-8.841     c2.721-0.512,5.456-0.824,6.243,1.033C266.005,368.701,251.767,372.145,248.222,371.167z"/>
			<path style="fill-rule:evenodd;clip-rule:evenodd;fill:#F8FAFF;" d="M285.46,370.056c4.129-0.785,6.648-1.244,7.102,2.123     c0.649,4.823-14.818,8.991-16.545,4.803C274.036,372.164,281.693,370.776,285.46,370.056z"/>
			<path style="fill-rule:evenodd;clip-rule:evenodd;fill:#F8FAFF;" d="M441.485,357.744c0.483-0.171,1.195-0.5,1.912-0.159     c2.376,1.145,6.678,20.092,1.297,20.681c-3.555,0.384-3.219-5.119-3.93-10.461C440.171,363.354,437.865,359.027,441.485,357.744z     "/>
			<path style="fill-rule:evenodd;clip-rule:evenodd;fill:#00CEAE;" d="M436.443,395.099c-2.917-1.804-4.127-10.937-1.887-13.7     C440.504,380.72,440.891,395.118,436.443,395.099z"/>
			<path style="fill-rule:evenodd;clip-rule:evenodd;fill:#F8FAFF;" d="M393.297,385.127c2.846-0.608,5.454-1.541,6.273,1.415     c1.447,5.238-10.416,5.977-10.998,2.053C388.28,386.574,389.606,385.914,393.297,385.127z"/>
			<path style="fill-rule:evenodd;clip-rule:evenodd;fill:#00CEAE;" d="M358.215,401.467c-0.11-2.468,2.742-2.413,3.099-4.482     c1.838-0.727,17.969-6.206,18.415-0.729c0.274,3.405-6.506,3.538-10.044,4.279C365.507,401.409,360.723,403.582,358.215,401.467z     "/>
		</g>
		<g>
			<g>
				<path style="fill-rule:evenodd;clip-rule:evenodd;fill:#F8FAFF;" d="M337.103,96.668c5.057,7.754,15.443,9.933,23.194,4.878      c7.753-5.059,9.936-15.448,4.878-23.2c-5.058-7.754-15.443-9.935-23.194-4.876C334.229,78.525,332.043,88.911,337.103,96.668z"/>
			</g>
			<g>
				<path style="fill-rule:evenodd;clip-rule:evenodd;fill:#F8FAFF;" d="M284.1,110.404c5.057,7.754,15.443,9.932,23.194,4.875      c7.751-5.057,9.936-15.446,4.878-23.2c-5.059-7.752-15.444-9.933-23.194-4.873C281.224,92.261,279.039,102.652,284.1,110.404z"/>
			</g>
			<g>
				<path style="fill-rule:evenodd;clip-rule:evenodd;fill:#FF4E4E;" d="M390.492,163.817c2.924-0.565,6.755-1.08,7.834,1.673      c1.262,3.229-2.009,6.665-3.584,7.986c-3.68,3.086-13.855,7.223-15.005,0.068C378.916,168.437,384.312,165.008,390.492,163.817z      "/>
				<path style="fill-rule:evenodd;clip-rule:evenodd;fill:#FF4E4E;" d="M322.325,185.027c4.392-1.024,9.284-1.637,10.6,2.603      c1.799,5.757-6.462,10.65-10.947,12.053c-4.007,1.248-9.387,1.174-10.573-2.22C309.027,190.657,317.041,186.254,322.325,185.027      z"/>
				<path style="fill:#F8FAFF;" d="M357.562,208.711c-7.269-0.408-13.854-5.294-16.049-12.671l-1.896-6.366      c-0.406-1.357,0.372-2.796,1.731-3.188c1.367-0.42,2.789,0.365,3.19,1.724l1.896,6.361c1.99,6.675,9.046,10.502,15.715,8.508      c6.678-1.987,10.492-9.036,8.511-15.709l-1.897-6.364c-0.402-1.362,0.371-2.796,1.733-3.195      c1.367-0.425,2.789,0.372,3.191,1.727l1.892,6.368c2.799,9.391-2.574,19.302-11.966,22.099      C361.597,208.609,359.557,208.829,357.562,208.711z"/>
			</g>
			<g>
				<g>
					<path style="fill-rule:evenodd;clip-rule:evenodd;fill:#568EAF;" d="M307.22,91.907c-3.659-3.34-8.751-4.104-13.076-2.419       c2.119,0.809,3.565,2.879,3.671,5.25c0.136,3.038-2.683,5.625-5.625,5.625h-0.268c-2.323,0-4.194-1.404-5.077-3.359       c-1.641,4.633-0.473,10.001,3.386,13.52c5.139,4.692,13.109,4.33,17.803-0.81C312.724,104.573,312.361,96.598,307.22,91.907z"/>
				</g>
				<g>
					<path style="fill-rule:evenodd;clip-rule:evenodd;fill:#568EAF;" d="M359.634,77.961c-3.659-3.34-8.751-4.104-13.076-2.418       c2.119,0.809,3.565,2.878,3.671,5.25c0.136,3.038-2.683,5.625-5.625,5.625h-0.268c-2.323,0-4.194-1.404-5.077-3.359       c-1.641,4.633-0.473,10.001,3.386,13.519c5.139,4.692,13.109,4.33,17.803-0.81C365.138,90.627,364.775,82.652,359.634,77.961z"/>
				</g>
			</g>
		</g>
	</g>
	<path style="fill-rule:evenodd;clip-rule:evenodd;fill:#F8FAFF;" d="M135.861,139.772c30.968-5.414,55.762,8.918,70.9,24.627   c16.687,17.332,27.629,40.182,35.391,66.012c3.956,13.166,6.857,28.718,7.462,44.423c1.22,31.418-4.173,56.267-13.057,80.731   c-1.896,5.233-4.547,11.809-7.1,16.74c-1.887,3.647-7.74,14.019-12.19,10.998c-2.193-1.478-0.28-4.467-0.023-4.999   c1.023-2.086,2.194-3.704,2.683-4.832c4.594-10.546,7.968-21.778,11.154-33.236c4.228-15.228,7.595-32.174,8.249-49.936   c1.45-39.481-10.321-75.963-25.865-100.272c-8.614-13.47-18.355-24.13-30.265-31.406c-12.506-7.629-30.174-12.34-48.407-8.368   c-17.847,3.878-29.376,13.48-39.259,23.589c-10.094,10.326-17.172,22.403-21.896,38.349c-4.518,15.238-6.892,31.365-2.939,53.734   c4.948,27.996,15.723,48.68,29.595,65.712c8.574,10.522,19.899,21.596,34.13,26.854c7.446,2.744,16.412,4.209,25.895,1.36   c29.807-8.962,42.133-45.07,35.997-82.6c-3.049-18.67-9.519-32.717-18.675-45.05c-8.104-10.918-22.195-22.761-37.291-23.138   c-17.358-0.425-29.083,11.251-33.714,20.836c-7.9,16.356-3.722,42.539,5.331,60.759c3.847,7.737,10.034,16.395,15.632,21.819   c5.54,5.366,14.691,12.799,23.009,13.137c2.142,0.085,2.042,0.652,7.233-0.973c9.691-3.033,16.401-14.552,16.617-27.523   c0.24-14.545-4.033-26.929-10.314-36.876c-5.516-8.73-18.729-23.002-29.725-15.289c-6.8,4.772-3.277,18.353,0.555,25.743   c1.367,2.627,3.579,6.694,6.287,11.034c2.068,3.316,6.969,7.909,3.962,10.841c-4.284,4.168-11.384-4.545-14.571-8.822   c-4.395-5.883-7.082-11.804-8.731-17.378c-4.638-15.68,0.216-29.512,12.298-33.331c6.721-2.123,12.753-0.558,16.214,0.606   c16.699,5.615,29.455,25.26,33.775,46.127c5.263,25.422-2.997,47.001-19.411,54.693c-12.531,5.871-24.654,1.258-32.229-3.535   c-12.888-8.158-24.83-22.2-31.882-37.045c-10.093-21.256-13.777-54.365-1.386-73.781c6.513-10.21,16.674-17.757,27.946-20.751   c14.101-3.75,28.465,0.773,37.83,6.161c18.356,10.548,32.324,29.174,40.094,57.543c7.846,28.643,3.879,59.685-6.65,79.057   c-9.829,18.078-32.823,37.854-63.481,28.643c-21.951-6.602-39.065-23.746-52.029-43.493   c-13.019-19.817-23.521-45.101-24.579-74.971c-1.55-43.713,14.579-76.775,42.905-97.014   C111.728,147.852,123.214,141.979,135.861,139.772z"/>
	<path style="fill:#568EAF;" d="M398.417,436.936c11.196,13.143,30.998,14.72,44.132,3.535l60.262-51.353   c1.858-1.589,2.071-4.378,0.493-6.23c-1.581-1.858-4.369-2.084-6.232-0.486l-60.262,51.333c-9.423,8.03-23.631,6.902-31.655-2.531   c-8.039-9.422-6.916-23.627,2.51-31.663l69.63-59.317c6.587-5.608,16.508-4.819,22.129,1.766c5.605,6.591,4.81,16.524-1.779,22.126   l-57.525,49.023c-3.875,3.314-9.738,2.843-13.047-1.04c-3.308-3.879-2.836-9.729,1.046-13.043l42.578-36.277   c1.843-1.583,2.082-4.363,0.495-6.224c-1.59-1.87-4.379-2.084-6.232-0.502l-42.575,36.273c-7.587,6.48-8.51,17.914-2.031,25.507   c6.456,7.587,17.899,8.505,25.49,2.034l57.542-49.013c10.298-8.775,11.539-24.287,2.76-34.585   c-8.775-10.303-24.294-11.545-34.585-2.776l-69.62,59.331C388.813,404.012,387.224,423.793,398.417,436.936"/>
</g>















</svg>
